/* XPM */
static char *d46c505cd2c34c5bf67248a012c653b1K3V9a5zJLlz5ySmy[] = {
/* columns rows colors chars-per-pixel */
"64 64 224 2 ",
"   c #0D1807",
".  c #0E1C0A",
"X  c #111E0C",
"o  c #111D07",
"O  c #132506",
"+  c #152C05",
"@  c #182D06",
"#  c #13240A",
"$  c #162B0A",
"%  c #192E0A",
"&  c #173203",
"*  c #1A3404",
"=  c #1D3C03",
"-  c #17320A",
";  c #1A330A",
":  c #1D3A0B",
">  c #1B3311",
",  c #1C3A12",
"<  c #213D03",
"1  c #213E0A",
"2  c #223E13",
"3  c #203F18",
"4  c #1E4202",
"5  c #1F4B01",
"6  c #1E410A",
"7  c #1F5101",
"8  c #224402",
"9  c #284703",
"0  c #244B02",
"q  c #294D02",
"w  c #23440B",
"e  c #244B0B",
"r  c #294D0B",
"t  c #255302",
"y  c #2A5403",
"u  c #265A01",
"i  c #2B5C02",
"p  c #26530A",
"a  c #2B540B",
"s  c #275C0A",
"d  c #2C5B0B",
"f  c #305603",
"g  c #315D04",
"h  c #30560C",
"j  c #325C0C",
"k  c #234312",
"l  c #254B13",
"z  c #2A4C14",
"x  c #24401F",
"c  c #264B19",
"v  c #2B4D1A",
"b  c #294613",
"n  c #324F11",
"m  c #255211",
"M  c #2B5413",
"N  c #2C5B12",
"B  c #2C541A",
"V  c #2D5A1C",
"C  c #315514",
"Z  c #325C14",
"A  c #32561A",
"S  c #335D1C",
"D  c #395D1D",
"F  c #266103",
"G  c #2C6302",
"H  c #2E6A02",
"J  c #2D630B",
"K  c #2E6B0A",
"L  c #256A00",
"P  c #316403",
"I  c #336C03",
"U  c #3A6C02",
"Y  c #33640B",
"T  c #3A660C",
"R  c #346B0C",
"E  c #3A6C0C",
"W  c #2E7101",
"Q  c #347202",
"!  c #3A7403",
"~  c #357A02",
"^  c #3A7B03",
"/  c #35730B",
"(  c #3B730C",
")  c #36790D",
"_  c #3B7B0B",
"`  c #2E6312",
"'  c #2D631C",
"]  c #2F6918",
"[  c #2D6813",
"{  c #336414",
"}  c #396513",
"|  c #346B13",
" . c #3A6B13",
".. c #34641C",
"X. c #3A641D",
"o. c #356B1B",
"O. c #3A6C1C",
"+. c #357213",
"@. c #3B7313",
"#. c #357911",
"$. c #3B7B14",
"%. c #37701C",
"&. c #3B741A",
"*. c #3C7A1C",
"=. c #367A1D",
"-. c #2D4A20",
";. c #2D4928",
":. c #2C5523",
">. c #2C5921",
",. c #2F572B",
"<. c #335522",
"1. c #325C22",
"2. c #3A5E24",
"3. c #345C2B",
"4. c #395D2C",
"5. c #375C34",
"6. c #2A6321",
"7. c #346322",
"8. c #3A6524",
"9. c #346922",
"0. c #3B6C23",
"q. c #3B652B",
"w. c #3C6B2A",
"e. c #37612B",
"r. c #3C7224",
"t. c #3B7924",
"y. c #3D742A",
"u. c #3E7B29",
"i. c #377121",
"p. c #3C6332",
"a. c #3A6638",
"s. c #3C7132",
"d. c #3C7B33",
"f. c #407F06",
"g. c #427908",
"h. c #416C16",
"j. c #416D1A",
"k. c #427415",
"l. c #427D14",
"z. c #42731C",
"x. c #437B1C",
"c. c #487D1C",
"v. c #416C25",
"b. c #426D2B",
"n. c #406627",
"m. c #437425",
"M. c #437C23",
"N. c #497B24",
"B. c #44752B",
"V. c #447A2C",
"C. c #497C2C",
"Z. c #497428",
"A. c #507C2B",
"S. c #456735",
"D. c #416F35",
"F. c #416939",
"G. c #427533",
"H. c #457C31",
"J. c #4D7C32",
"K. c #4B7D3C",
"L. c #467A39",
"P. c #507D31",
"I. c #426940",
"U. c #497749",
"Y. c #4D7D44",
"T. c #547943",
"R. c #3B8202",
"E. c #3D830B",
"W. c #3E8908",
"Q. c #3B8604",
"!. c #3D8112",
"~. c #3F8A12",
"^. c #3F811B",
"/. c #438E05",
"(. c #488F07",
"). c #43840B",
"_. c #428B0D",
"`. c #4C880E",
"'. c #47920D",
"]. c #438214",
"[. c #438A15",
"{. c #4A8C16",
"}. c #44841B",
"|. c #4A831B",
" X c #468B1C",
".X c #488E18",
"XX c #518F19",
"oX c #499314",
"OX c #4A951A",
"+X c #4C9812",
"@X c #539917",
"#X c #448123",
"$X c #4A8223",
"%X c #458B23",
"&X c #4B8A25",
"*X c #44822A",
"=X c #4D832C",
"-X c #468C29",
";X c #4C8B2B",
":X c #52832E",
">X c #548B2C",
",X c #518927",
"<X c #4E912D",
"1X c #479225",
"2X c #519727",
"3X c #50932B",
"4X c #4B8431",
"5X c #4B8930",
"6X c #488038",
"7X c #4D883A",
"8X c #40883A",
"9X c #528533",
"0X c #518934",
"qX c #528C3C",
"wX c #54853F",
"eX c #4C9632",
"rX c #589035",
"tX c #5B923B",
"yX c #579839",
"uX c #609A36",
"iX c #54884C",
"pX c #5B924A",
"aX c #559B41",
"sX c #679F54",
/* pixels */
"i { * l 9 q Q i S i ~ ! }.u 8 u W +.g.R.I I I G ~ ! _ ) x.]./ +.u H H I G ) ^ I R.[._ W.}.).^._ ) #X^ i y g.! O.V.qX9.0.4XG.P.eX",
"G Z 0 i.w e t y I R y } $.Q I Q I !.u H K ! K W H I Q G T ! I P I ) I t.G E.).%X/ OXl.! {.[.o.y _.x.].G ..E R P >X} ` $X*Xd.6X;X",
"t d R &.M 7.H P g | 0 s G H ! Q G d 5 G t y d t t G ~ t e G Y | u G ! u.) 0 ! E.I [.r.i _.OX-XJ P ^ ).E.' $._ M.,XO.y.B.M.*XG.aX",
"i G J t y @.^ I P Y y 0 i I R G y #.u ).t d y +.i u ) t { / | $.L 4 ( z.*.G u ~ $.^ #.P x..XOXG _ $.%X.XQ *.( { 5X-X;X; 7.V. .7X",
"y Z < 0 j I J i I H K j i G Q _ i @.H ).t d p ].G u Y t ) ~ T _ ^ 0 +._ G u i _ *.I Q ! #.! ]. .t.i } } V U l.E o.M.&X .,.yX} K.",
"= M = r z.y M y I I s E U ( Q i Q i ~ ^ i y s I #.i Y t _ ~ U Q./.Q H W.I J R./ Q G I _ ^ L | x.H p :.S i a  .x.O.M s.r.r.M.b.C.",
"0 i q = T w g u a y i ! I ( H 0 i G u Q I P 8 i }.u 9 4 y Q ! i ^ I y ! i [.^ H ~ H ~ '.R.J a f J G | i 8XP  .k.4XO.1.*.2X&Xb.j ",
"8 y q : i 4 u t d < J 0 d ~ H 5 0 4 = R H G t t {.H i 4 < H _.i U *.$.i G K l.! U p I _ Q E &.s i eXE g Y i y C.|.A.w. .M.x.P.S ",
"G d G u t t 0 I | I P E y i ~ i Y % * t H i 0 G ~ H H t ! d %XP B u _ W E.)./.}.].I ~ R G i $.*.O.U r.| ( T d &X8.&.4X9.uXqXyXqX",
"y y i P i i u P M I y P a 0 Q G i y 8 y G I 0 F '.].G i 0 6.F G P / I H Q .X/._ P R I Q P t P .X( g g t R Y H ( 8.b.z.u.V.pXXX7X",
"u r 0 9 = y = q < t G y f i G I I e R q y G G t i 0 G Q s =.u l.! W I Q R.'.E.^ G +.R +.I g y ! G i i y a q K ..t T j.;Xk.>Xm.9X",
"H I 8 y 8 y 0 e 9 u G t y i ^ &.p { r d I i W I t e p G ) p O.R t _ Q ! p l.[./.[.).)..XP i Y f._ Q I ! { | R | ( t.S :XG.N.1.T.",
"9 y u g y i 9 y f i P y P G I G y w y i I I G ~ G d R t P G ` 5 8 ..0 _ t r.{ ^ ^.^ !.).U J i E %X^ _ OX[.k.T } 4XM.E 9X-.3.B F.",
"8 y y e q * 0 0 1 y 9 { }.y t t t 8 y P H t G 5 s 0 * i 9 Y H _ 8 | P i 4 c o.E.i G | u E +.G f { P R $.R.i 0 J ].! Z.1.1.a.v.S ",
"i t y 6 8 * 8 0 4 * = N #.g 0 P 0 i 9 P J P 0 0 0 b M y @ | t 0 y P I i { e z.E.G G R y G +.I | &.c.Y k.@X[.P ! $.+.m.0 | F.wX7X",
"G P t i y p q 0 8 8 @ I Q y I Q = p + i i 0 I 8 y = M v h H &.d y I I G y M |.+X_ t G ^._ $.{ d ! 3Xp { XX[.P I $X| P 0.h C.6Xl.",
"u q 0 E 1 ; p i 0 ; 9 0 i G u I 8 M.8 0 y t t y y y : : c * R y = 4 #.G { 8 I Q.l.1 I d z 9 i M P .X0.! } O.} ..yXz. .o.l } &.S ",
"= l 8 u I M e = r O p y u p 8 = 0 Z y 8 6 8 Y y 4 - $ 4 v 9 P 0 J 0 P i #.G I I a c p } 9.% y . N.4X>.R r Y X.V &X=XO.` ..n.J.w.",
"8 t O 4 i 9 8 = 8 < a $ = G i I * @ = G / @ 9 G 4 O = * a ; u e M 0 0 u I t ) H G a ..a P Z t : r  .d *.#.P h h x.n.X.E 8.b.K.J.",
"0 G i 4 t 8 r O i 0 , # O 8 1 g 0 y 0 0 G y 0 W Q { j 4 o.i I G &.y i P ! ) ! u J T Z X.i 3X| 0 = &.$. .&...q.C A.1.m.k.v.O.0.4X",
"t 9 d & 8 y Y y 9 a : * l M O ; i i : G Q u P G L I Y e g.V g y a w w Y _ ( ! F P M.r R q M.l.a : y R c.&XN.$XS 9XC.V.h.Z.x.S J.",
"G y % 0 0 5 8 < # % 1 8 w t 4 X q 0 e 8 y 0 u t G t s = M = V i } w p G i P 0 o.9 Z 9 I i ! ! Y &.T 0 0.C.$Xk...*.,X8.j w.Z.q.S.",
"G u * 8 d 4 t < * : l 0 0 * @ w 8 P 0 8 Y 4 y 8 i 9 e t y y 0 8 O.y : y t i i 1.0 t 8 d i y I $.! 1Xt u P x.0.Z Y N.S P o.8.q.p.",
"P 4 0 8 0 = 0 P @ = u G G t 1 P i Q t y $.i I Q G y | t | G 0 d y I ' ! 0 r e Y t p g P { M < 8.R #X! %XO. .v.s.O.C.m.E |.2.v b.",
"6 G y 4 ; O 8 0 * 8 q : * ; i u 4 t u t y d | t d 9 I 0 G P u 0 = V P l.= 2 M w i R / t P 8.6 *.r , G &.N.( H.J.z y o.g 0Xh.0.X.",
"$ w i t ; % % < = 8 * 4 & 4 t t i 0 u 0 9 = q m M a 0 5 = %./ 4 8 t I k.- M e : 8 g z.O.i N = r d M P Y Y T R } c.n.A 2 Z j.k.v.",
"w < 4 0 @ X O = = 4 = * & 0 4 = t G 0 o.Y t 5 4 4 d w N = 8 K k p t ) R V B = 6 : & h R g E a r Y ..j d t j P a Y @.7.b D j.=XL.",
"w r < 1 O X e y t t e 8 0 = 4 u i 0 P ) Q K 0 * 0 0 r ` w M 8 N R G p Q [ q 4 H y.8 i i q j p = y  .Y *.d l O.V.o.k.c. .Z.9X8.A ",
"8 q * = 9 8 t 0 F u @ 8 0 8 0 t t u 9 t y 1 c M 0 : # e y R 9 = Z p [ G ..0 / J w 4 * V s e U p 0 a N O.Y Z &.C.1.v.2.7.V.>X,X*X",
"q w * : 0 8 = e = 8 e * = 8 = = * @ = : X 2 k i N : 4 0 0 ` s 6 8 u H 0 w p J 9 ..o.v H.Y 4 0 = : w O.X.a l a z.B 7.5.-.<.N.Z.wX",
"0 0 = O @ y 8 0 = * a < t p * @ # * 4 $ > , e 8 Y 9 p e 8 * K ..4 G J + e k e e r = 4 d ( Y Y o.y 0 &.X.z l z 1.A Z r b 2.q.{ | ",
"6 i 0 1 # 9 8 0 O y p i 0 i 0 ; 8 e G i t i G I u 5 t 0 i R I G t u d F ) V y K #.i s p %.p E.R.Q Y 8.w.B < v b o.j V Y D.h.v.>X",
"# @ 8 G t * w d @ 1 a y q K = t { @ K F u u G i e 8 P u 4 4 j i $ 4 d.= p u %.^ 3X|.{ ..t u G _ _ 0 O.,.0.a k , M A 8 } B.D o.C.",
"4 : O 0 t O : 8 # 8 y ; ; { P Y / 6 4 = t s p B 2 u p w > = 6._ w & N 6 8 4 q 0 y V / 8 i 0 Q E.u e = 0 S A z A e Z r z X.b.U.uX",
": * 8 # i * - e # w = X % 0 R j t 4 = O 4 i a 0 i u G t X p ..J = 4 0 O 4 0 0 G t m / 8 y 4 F I .X^ G 8 z V r k o.k.P r 4.4.P.pX",
"B y u $ R P H 0 1 9 i < { / H ! 4 d 8 : O u 0 t 8 $ j [ - #.z.O.t t Q u R t y G 8 0 K Q R.d e e } / t Y 8 @.8.9 U T G.e.0.3.3.w.",
": = G 4 4 0 K 0 = 2 q w G u E I e w i = 4 G ] t * * w i.9 H a o.u 8 i t J G Y G I G i ~ ^ d l k V O.t $.{ p &.w M C &XZ V.U.e.b.",
"@ & 4 O * @ j 0 t $ X : 8 = y w 4 # 0 0 O p K L 0 4 8 J 8 G * u G 4 t u u / G = G G 0 ) I I 1.q 8 o.9 y 9 p d 8 Z j  .S l.Z.K.Y.",
"X % d - 1 @ * = m ; * 8 O $ $ q 4 O J w   # q G 0 : 8 8 , =.d L u u 0 0 i F 8 y R G 9 ..y I o.F e y  .2 v j j j j Z a U &Xp.Z.z.",
"* = : N $ + t 4 = i O 0 = # : & 0 i I = +.s t G y 0 p < 8 u G t 8 G ) u r s G u t 4 M i R d ! G _ y N.Z M z w z X.z i Y $XV.8.V.",
"$ t i N 8 i 0 0 q = @ y 0 y 8 $ p t i e : i G I 4 4 e : 8 = 4 , = s H ) u t E i F 8 N d M { I t P 4 y / 9 7.: e.7.| 0 P h sXw.v.",
"O 8 t e 1 t r e B k M i y 0 I 4 u t 8 0   0 0 H v 0 > 0 4 e k ;.m 4 i I I Q s t q 8 j P q y G t 8 r 0 O.| e * q w.Y h j j ;X0.<.",
"> w 4 = ; 8 r 0 @ @ w @ = & q * R 0 8 * = : : E.4 p : N = @ 6 6 0 = = y P ^ ~ Q ' 0 d | M 8 Z z 8 P G d 4 8 * 4.p s { R : X.v.S.",
"8 p 0 0 % = 0 y = = 0 @ 0 = = 8 8 9.0 i = I = / i J t J p 8 c > ` = & 0 e R E.! G P R G v S 8.Y l w.4 E w 8 1 z B.{.|.<X1 M ,.9.",
"4 p P J 8 4 t H t 4 t = 4 8 * t $ 0 I H t K t 4 %.` G H t p w M q ; } ~.G P H ) R I #X{ M 8.y *Xi a ; w b 6 n ,.&.&.U |.0.q.7.5.",
"= ; a w 9 = i G G = 0 * = 8 O 0 = $ 8 i G t = 4 H u 4 G J w k l p = u ^ I I i 0 t 9...i g y y ( 0 e 9 * w.: S w 8.h.q D.B.B.0.&.",
"4 O 9 $ 6 = u t H = 4 * 4 e * 4 0 4 * 8 i u 4 u u ' 8 Y $.= t t 4 0 = 4 4 t / | & J 5 0 s i  .y I = d 1 O.A w 9 p M 8 8.5.-.D :X",
"R 4 G 4 p 0 G i H = t G < s B t u u 0 u s W G I i q $ p E Y y G 4 u u y e p i E.5 t B J t 0 q i g.J 0 0 = A j y _ A r 2.a.% <.L.",
"4 0 0 G t 5 u G = i 0 L u y G H u 0 G u * G u ~ R.8 5 ; $...0 t >.t 8 4 m 0 0 E i p - q y 0 y < 9 9 g { e b a o.&.n Z m.e.v v iX",
"= t = / 0 0 5 I = a + t y * p 4 a 0 _ 0 = s R y W F 8 4 Q t 4 + 0.! N 4 9 4 = | +.$.G Y 8 P N e 1 b X.9 N e r g  .o.N A D o.t.2.",
"u 5 t t G G & t i 0 t t t $ p 5 O t t p O 8 u t i P ; 8 / u u 0 t u N t + t 0 = q g y 4 y g i.< e 8 T P j 0 1 b y 9 c A v.O.i.Z ",
"5 J 4 i i G : 4 = 0 i p p w = u t + 9 u @ = 4 ~ G R i { | 0 s | 8 M e i 5 G v Z 0 0 d * 9 P U i * p x.Y g j < 9 | 8 X r 6Xr D O.",
"* M 8 i R G 4 = = = 0 6 p ; i G t 8 8 t u 8 8 I Q i F 0 Y p : m 0 p = = 8 0 V O.! i H t 0 u 9 :.* 8 ! *.( @.y z y X.h x R #XP q.",
"t s 4 p i F t i 4 4 5 * i ; p _ t t d 0 = d e y R.G H = d t = 0 0 G ) = 6 * i t / V 0 i i G 9 6 w w j I i x.y 8 f x.} v X.o.j C.",
"5 7 u L J 4 s k w $ 8 y @ c % y u 4 = : ; : 6 B t 0 0 = N e 0 t # y ~.y u : 0 +.H B e e 0 _.r u y i 1 N M Z % M a Z } r &.b.b V ",
"5 4 4 m * Y k 8 p : t N % K & w : . 0.0 & t q / y H u 0 t O 5 H = u ~ i 5 u 0 s u a p - 0 I y O = | ( { 9 f v B.8 y { r j.n.C p ",
"t G = l * y O.C u O V y Y ^ / 0 8 = 0 0 y a H Q / P =.G 0 q I 7 H P 1X! u H p y = I R e y K ! < 0 d J i T v ; } m.p ( 2.| 2.3.0.",
"- [ u 6 > = V R i a * i ) G #.9 < u = d y o.9 d ~ t I q 5 i I W p E i Q t e m w 8 e @...P P q ..} h = * f <.z A 2.U x.m.Z 8.k b.",
"- 0 m = $ X # c r.@ 8 5 J G N * = 0 y u i Z = i I =.o.o.0 $ ..! i u I L 6 t p $ B # i i u 8.O M K I * 6 M ..= y y l.#XE q.r.j 4.",
"O X k e + # . w 1.d O 8 y y I y y + 0 0 < N + 4 8 p H | d * y }.0 4 i G = G J O r e i H G { 4 0 &.Y 4 w A 8 y.*.0 y M.E.{ y.j b.",
"0 $ = p 0 G t G | $.P u K 4 H Q Q : d k w m 0 i B 8 d :.K t 4 ..w * s 4 = 0 e . :.a G P u G y c 9.y p q X.1.g @.i o.Y E C ` V $ ",
"t 0 = & * ` G s 0 m i ~ G u u Q I 4 * e e +.u i J Y M t H 0 t Y i G i ` t [ & = M 9 * p V 6 w @ a : t t = G : * 9 9 j 7.Z M 3.V ",
"t F = O $ < y G 4 4 t 5 G t = F I G y 4 t i W G P ! K t y 8 e P t u 4 i G t y i ~ 0 e 8 = 6 0 G 0 p i i i t N 1 y p 9 S V T wX{ ",
"L 0 # : 0 : t y = 4 G i u i 8 t Q ~ y = * P ~ ^ i I u 5 G u u i G 0 t y u g Y l.i p J w * w t I y * i y 8 t y i m.l M f u q yXF "
};
