/* XPM */
static char *de9ae9f0a7cf4a90a987de54d209bc48l21iEbKLCUfvzfrz[] = {
/* columns rows colors chars-per-pixel */
"64 64 256 2 ",
"   c #0A0D0B",
".  c #070A07",
"X  c #0B130B",
"o  c #0E1B0B",
"O  c #121C0B",
"+  c #17140D",
"@  c #13110D",
"#  c #0F230B",
"$  c #142C05",
"%  c #13240B",
"&  c #152B0A",
"*  c #192D0A",
"=  c #162706",
"-  c #163303",
";  c #1A3403",
":  c #1C3C02",
">  c #1B3409",
",  c #1C3B0A",
"<  c #163805",
"1  c #1C3512",
"2  c #192712",
"3  c #27260A",
"4  c #213E03",
"5  c #233B09",
"6  c #203D14",
"7  c #35280C",
"8  c #46330F",
"9  c #1D4302",
"0  c #1D4B02",
"q  c #1D4509",
"w  c #1E5302",
"e  c #1D5905",
"r  c #1F5812",
"t  c #224402",
"y  c #244C02",
"u  c #294D02",
"i  c #23440B",
"p  c #244B0A",
"a  c #2A490A",
"s  c #255302",
"d  c #2A5402",
"f  c #265B01",
"g  c #2B5C02",
"h  c #26520A",
"j  c #2B540B",
"k  c #2C5C0A",
"l  c #25590A",
"z  c #315602",
"x  c #325C03",
"c  c #325C0D",
"v  c #34550B",
"b  c #274814",
"n  c #2B5413",
"m  c #2D5A11",
"M  c #2C541B",
"N  c #2D5B1B",
"B  c #255917",
"V  c #325B13",
"C  c #325C1C",
"Z  c #345615",
"A  c #354E0A",
"S  c #1B7101",
"D  c #256302",
"F  c #2C6302",
"G  c #256B01",
"H  c #2C6B01",
"J  c #2D640A",
"K  c #2D6A0B",
"L  c #326402",
"P  c #336B02",
"I  c #396C03",
"U  c #34640C",
"Y  c #346C0C",
"T  c #3A6D0C",
"R  c #3A6609",
"E  c #257401",
"W  c #2C7401",
"Q  c #257D00",
"!  c #2D7A01",
"~  c #2E7B0A",
"^  c #347301",
"/  c #3B7402",
"(  c #347B01",
")  c #3A7C02",
"_  c #34730C",
"`  c #3C740C",
"'  c #347A0A",
"]  c #3A7B0B",
"[  c #2D6212",
"{  c #2C6912",
"}  c #336314",
"|  c #346C13",
" . c #3A6B13",
".. c #35641B",
"X. c #356B1C",
"o. c #3A6B1B",
"O. c #3B6518",
"+. c #3C7214",
"@. c #3C741B",
"#. c #3A7915",
"$. c #2D5522",
"%. c #315C23",
"&. c #375D28",
"*. c #2F522D",
"=. c #3B6324",
"-. c #3C6C23",
";. c #3B6B29",
":. c #356624",
">. c #3C7625",
",. c #3B6734",
"<. c #3A7333",
"1. c #4F4A1A",
"2. c #427D03",
"3. c #447908",
"4. c #437D14",
"5. c #447719",
"6. c #446C19",
"7. c #455825",
"8. c #585224",
"9. c #635726",
"0. c #416C2B",
"q. c #426926",
"w. c #437B2A",
"e. c #467926",
"r. c #436836",
"t. c #497A35",
"y. c #527C37",
"u. c #57742C",
"i. c #696B28",
"p. c #4E7845",
"a. c #1B8F01",
"s. c #288701",
"d. c #348301",
"f. c #3B8401",
"g. c #348B02",
"h. c #3C8B01",
"j. c #3D830A",
"k. c #3C8708",
"l. c #2B9601",
"z. c #349301",
"x. c #3C9301",
"c. c #3B9A01",
"v. c #3A9906",
"b. c #3B841C",
"n. c #1CA600",
"m. c #29A701",
"M. c #39A802",
"N. c #3BB701",
"B. c #21B703",
"V. c #3E8227",
"C. c #438502",
"Z. c #448C01",
"A. c #4B8C02",
"S. c #478608",
"D. c #558D07",
"F. c #439301",
"G. c #4B9401",
"H. c #449A01",
"J. c #4B9C01",
"K. c #479A0B",
"L. c #539C00",
"P. c #569806",
"I. c #468617",
"U. c #558B16",
"Y. c #559417",
"T. c #4F9417",
"R. c #619C0B",
"E. c #44A301",
"W. c #4BA300",
"Q. c #44AB01",
"!. c #4CAA01",
"~. c #46A50B",
"^. c #53A401",
"/. c #5BA401",
"(. c #54AC01",
"). c #5CAC02",
"_. c #59A80A",
"`. c #4BB400",
"'. c #44BB00",
"]. c #4CBB01",
"[. c #46B502",
"{. c #54B301",
"}. c #5CB301",
"|. c #54BA01",
" X c #5BBB01",
".X c #58B509",
"XX c #5DA51B",
"oX c #62AB02",
"OX c #6CAC00",
"+X c #64A506",
"@X c #64B401",
"#X c #6BB402",
"$X c #63BB01",
"%X c #6BBC02",
"&X c #69B70A",
"*X c #74B401",
"=X c #73BB01",
"-X c #7BBD02",
";X c #7AB606",
":X c #6AA71A",
">X c #77B615",
",X c #71AE16",
"<X c #498629",
"1X c #548829",
"2X c #549425",
"3X c #4C873A",
"4X c #548838",
"5X c #5B9537",
"6X c #4C952A",
"7X c #63992A",
"8X c #618D37",
"9X c #669938",
"0X c #75863A",
"qX c #76A82C",
"wX c #78B725",
"eX c #70A934",
"rX c #36C100",
"tX c #4BC400",
"yX c #55C101",
"uX c #5CC300",
"iX c #59C706",
"pX c #4FD203",
"aX c #64C401",
"sX c #6BC401",
"dX c #64CC02",
"fX c #6DCC01",
"gX c #67C808",
"hX c #74C401",
"jX c #7CC501",
"kX c #72CA01",
"lX c #7BCB01",
"zX c #7AC80C",
"xX c #64D200",
"cX c #6CD200",
"vX c #60DC00",
"bX c #74D301",
"nX c #79D501",
"mX c #77C214",
"MX c #578C4B",
"NX c #67984D",
"BX c #7AB04E",
"VX c #5C8B61",
"CX c #85BA08",
"ZX c #8EBB1A",
"AX c #85B630",
"SX c #83CB01",
"DX c #8BCC01",
"FX c #88C604",
"GX c #93C903",
"HX c #88D401",
"JX c #8ECD12",
"KX c #85E100",
"LX c #90C930",
"PX c #8CB848",
"IX c #90B872",
"UX c #95C245",
/* pixels */
"g } < b y u ^ d C g f./ <Xg 9 g L ' 3.^ ] L _ D W 3.' ] I.#.` | f H H P F _ ) P f.I.' I.I.) b.` / >.4.F a S.P @.t.4X:.-.<Xt.y.6X",
"F V y >.i a s d P Y d } ` ^ H ^ ^ ' g H P P K P H / ^ g U / ) g I ' _ >.K j.C.<X/ T.#.( I.I.>.k I.I.S.D X.I _ c 1X| m <X<X<.p.6X",
"s k Y +.n :.H J x | t l L P ( P D +.x P C.a J s s F / d h k Y Y f K I >.#.y ^ j.P I.@.F Y.XX5X| L ^ e.) { 5._ 5.<Xo.<.w.>.<X<.5X",
"g J J s d  .) I L Y d s f F _ g s U.oX&X+XU.U Y f f Y f } P { #.D 9 / 5.#.F g ( d./ @.[ qX>XJXY.2Xk.<X4.W >.3.} 6X<X1X> :.w.| 3X",
"u V t y m P J f F ^ | J d g ) j.s ,XkX$X$X+XoXU.U f U s ' 3.Y ] ) y | j.J f g ] V.P P S.CXzXfXwXAX:X5.} V L 4. .X.e.<X .%.5X..3X",
": n : a 5.d n d P L k T / ] W d S.&XbXQ N.yXbX,X+.F c f ' / ` f.Z.^ H S.H F f.T P F _ :XJXgXl.|.hXZX1X%.u k ..5...m <.>.>.e.0.w.",
"y g d ; R i g f j a g P / j.g x @X{..XQ a.m.[.$XY.J 9 4 s ^ / g ] P f I L b.) P P ( Y.FX$X].a.n.pX^.BX/ e.Y } 4.1XO.:.@.2X<X0.c ",
"t d u , d i f d g 4 K t j ^ T #XgXl.gXs.m.Q l.aXwXD.H t ; W S.d I @.#.g F P #./ 5.5.JXaXM.'.N.n.m.B.ZXeX1Xg d e.I.<X:. .<X5.y.N ",
"J k F g s d y Y | L P T t H /..Xl.s.cXN.dXN.c.Q.zX,X] F L K <XF M f ] ^ f.j.G.<XT.>X].N.[.|.fXxX].m.-XLX9XO.L 1X=.-.3X:.9X1XMX5X",
"y d x L F f f L j Y d L d h &Xs.l.c.aXtXW.Q.'.M.HXJX>XU 0 } F P ^ Y ^ J H b.S.] P.|.l.B.`.nXcXJ.aXtX%XLXLXeXR Y -.0.5.<.w.MXT.3X",
"f a y t : d : y t 0 g d f k  Xs.N. XlXH.x.Q yXdXkX].nXI.J X.F +.( Y P ( ( K.k.) 3.'.m.fXGX@X XQ M.bXJXFXbXBXq.} h T 6.<X5.1X>.4X",
"H ^ t d 4 d y u t F F d P L %XQ.sXH.Z.l. XJ.$XnXnXfXbXqXT r X.L s / Y ^ F I.S.<XD.zX XhXW.l.$X=XM.SXGXGXlXPX9X ./ >.N 1Xr.<X%.y.",
"y d d x d g t d d P P d 4.P.$XcX'.! ) ].x.{.E.KXbXKX;XLX4.f  .y : V f j.y :.| eXhXbX%X}.E %XJ. X@XSXSXGXCXLXLXo.<X<XT y.$.&.M r.",
"4 d d h u ; a y y a 9 } :X_.d.F.!.H h.d.J.sXtXxXbXxX' aXT.3.F _ u o.H d , M w.>X[.J.(.J.E {.h.hXyX%XDXDX^.c.AX4X4./ 0.%.M ,.;.%.",
"f d d 9 t > 4 y t $ ; { U.H.0 ! W.^.@Xf.W.{.yX$XHX X! L.wXe.y f d U P f c i e.*XG H m. X#XW.G.kXsXfXDXHX+X' ,XAX4.+.e.y ..,.4X3X",
"J F u g f d a y : s ; K 2.G.^.|.`.yX! (.L kX X XfXhX(.A.JXS.#.a d L P U x n I.:XW.oXjXuX@XF.f./.SXcX;XSXSXD.).PXw.| L -.k t.3X4.",
"g u y T : 1 h g y * a u 2.).M.Q l.E.E.K $ hXcXsXgXL.$XsXqX* ` u < 9 ` L [ y U ).dXn.s.].E.}.O / SXHXSXjX%X=XFXNXNXT ` :.i } w.C ",
": p t g P n p : d * p k !.E.z.g.c.[.c.d L nXkXbXxX@X!.OX5.t D a L w J F #.F I.mX{.a.W.N.hXH.= /.FXGXHX%XaXzXqXC 4.3XX.c :.q.<X,.",
"t s = 9 F t 4 : y ; c g ^.x.x.W.Q.Q.yX(.J.kXbXkX(.$X'.%Xe.o.f u m t y y ` g F.{.M.^.sXgX].@XK.FXSXDXHX=XkXaXeXy.1Xt.=.L 0.q.t.y.",
"y F f : f t a = x c P.+XsXW.^.aXQ.'.xXxX}.fXkXfX}.}.N.iXwXeX2XP | v f U XXqXJX#X(.@X|.tX$XnXFXlXDX-XkX*X&XtXnXIXIXq.-.4.q.=.=.1X",
"d y m ; t d L h , S.).aX!.Z.K W W.[.uX XdXnXjXaXW.x.l.N.hX:X9XU k 4 i ` &X;XkXL.G.f.s. XiXSXlXhXGXGXlXW.~.N.aX7XBXNXt.5.e.e.Z t.",
"J d $ y p t t 4 * sXcX Xh.W.^ ! E.Q.dXaXG.%XhXoX.XW.s.l.g.2.7X2XO.b M P.SXnX!.(.h.e ).}.gXjXsX+X-X;XSX|.N.n.M.) oXIXu.Z -.<X0.,.",
"F f ; 9 j : d 4 v $X$Xv.H J.h.H.z.uXaXaXP L.Z.}.dXiXM.g.Q.L.mXwX .0 i P.jXkXH A.J.E.).E.lXlXOXf.oXG.SXzXxXM.M.^.OXUX8XC | :.r.7.",
"F : y t u : y P S.).aXg.L yX XA.g.{.aX$XL.oXf.E.{.iX'.d. X!.lXwX5.+.6.#XjXkXw /. XOXd.aXlXcX*XG.-Xv.sXsXfX~.[.%XhXZXBXU.<X%.M r.",
"6 d f : > * t t 2.(.}.hX#XH d.W [.|.xXhXA.L.W x.{.uX{.M.iX^.P.JXqXn U *X=XjX#X%X> %Xz.aXkXjX#XA.oXs. XaXlX}.aX#X.XhXAX9X8X| O.q.",
"* t F d $ & * ; 3.D.G.{.(.: 2.|. X!.aXkX}.%X!.[.}.iXxXdXbXf.g.zXY.J / kXJ.}.lXG.# &X#XaX=XDXDX#XkX|.sXhXnXfXlXSXd.#XPX8X .q.5.+.",
"i : : s * % * : s ) F g.Q.d.{.iX|.W.).kXaX%XdXyX(.tXpX{.hXJ.J.C.:X1X` U.H ! (.E +XzXnX XkX#XsXGXSXcXkX#XvXdXjXjXL.P.).BX8Xe.;.p.",
"i a : : % % i y a C.H.) G.J.aXaX!.|./.$XbXoXdXuX{.N.M.Q.kXhXfXA.) wX+.@.Z.^.oX_.kXaXHXQ.DX#X-XSXCXcXlXaXrX].jXjXSXOXD.G.BX5XO.N ",
"t i t : t t a c 6.G.G.!.x.W.W.].! |.C.A.bX#XuXyX$Xc.!  XbX$XnX*XA.eX5.<X}.$XE.(.{.sX{.c.).L.#XDX*XuXlXkXl.c.jXFXGXJXeXP.PX9Xy.3X",
"d i * * p d m ..P.P.D.L.H.Z.J.F.G J.F P $XaX|.`. XF.g G.aX{.kXL.T.<XI.+XOX-X/.L./.}.s.d.c.s  XGXkX XlXhX( f.#XkX XhX$XLXNXe.-.5X",
"9 d : % , d 3.^ P G.Z.C.F f.H.`.h.W./ A.!.$X@X|.[.(.P ( {.E.gX] 2.' ( ^.^.L.h.Q ^.aX-XM.+Xu -XQ.SXkXkX}.C.Z.G. X'.GXAXPXNXp.R ..",
"i f d i b C.A.) f.Z.A.A.Z.{.x.^.|.@XJ.$Xz.W.#X$Xg.H./ / F.D ~.S.G.@Xd.G.&X/.A.}.{.).}.sXOXOX$Xz.;XlX@Xm.L.G.^ J.a.*XLXAXAXe.q.1X",
"% $ a P 3.^ F.] Z.Z.( ( J. XZ.d.J.) A.I t +X^ (.E.E.aXy G.k.C.d.A.W.G.(.F.F.l.-X_.g.W.Z.x.D.3 f /.x.sX|.fX^.F (.c.}..XLXNX..;.u.",
"p $ > K j.( ) h.Z.E.^ F.H.( ^ d.h.; z g O c D Z.{.|.kX^.(.] f.) v.L.W.^.J.E.J.{.H.^ ].j.X x ^ . ) h.(.sXjX-XL.R.d.L.^.*X,X9XVXMX",
"4 9 p ^ / d.) W.F.Z.f ( c.d.Z.g.x.u / I x u x.Z. XyX%X}.C.+.( E.c.).}.G.k.E J.M.`.J.M.f.t 2./ a / W.|.}.jXSX%Xt g.OX).}..XwX9X1X",
"b h g P / g.f.J.).^ f g h.g.J.g.F f 2.3.L.2.S.W.(.{.C.^.k.j.^ d.f.~.*XH.' G s.k.!.}.E d ( 2.D.L.G.oXsXaX=XL.}.d.!.kXlXzX#XoX+X2X",
"5 t d L Y s W L.G.; < < W ! E.c.s : 9 L A.d A.f.Q.L.f G. XM.P.s P s.CXj # % 0 c.l.iX! * # s ^ D.H L.}.$XJ.- sXfXoXgXcXaX%X[.#XAX",
"* $ i / x.g ( (.H.t : 9 F G M.g.d o * ; g d Z.j.(.) f F._.~._.D D {.OXg.= e : Q z.[.l.o X o $ H P ^.!.%Xd f.$X$Xg.M.}.}.ZXgXOX:X",
"O 1 ..A.( f ^ W.d.) D g f f g.( : %   o < g ( C.G.H g.E.Y.P.f.g.9 J.(.c.d.D G D ( H.S & X   o 9 Z.F.Z.).P uXaX@Xg.E.(.{.>XCX7X4X",
"> u 2.L.F s w P ) F.H D F ^ E G e $ % . : g k f.J.d.G.W.T.+XD W 0 ( c.g.J.E E ! l.~ Q w X X o 9 G ( ).(.H.(.oXaXW.).aX%X#X,XMXy.",
"* O.:X(.^._.( < C.d.^ P L f.F f t = &   % : y ( J.^ ( I.P.&X#X$X^.w y {.s.x.K J.! s G # &   X % - P W.W.g.F.H.W.J.E &XfX).).9Xr.",
"& q C.J.(.E.^ d ^.x.! f ( ^ s 9 9 & * % % ; d W.K.) F H Y _./.).).l A.^.( c.f J.s.: < 9 o 2 o o 9 Z.@X!.H D W.(._.x.$X(.,X@X2X;.",
"1 p 7XG.] f.( ( W.^ f < ( F f : s O ; 9 o : P ( H G 9 Y 7XwXC.s.F.v.J.E.W - 9 g.0 E 0 0   9 o X H G !.H W < W.{.{.).oXd.L.Y.4.o.",
"9 O.1X3.x.) g d.( F g d F s f y y 2 = & o * s H H g u f.<X2XZ.v.d.f h.! f H s ! D w 9 D X % o X s f s.W 0 L d.x.W.@X/.W ( C.3.r.",
": p U U C.s - y D d < o F l 9 s d * % * : * 9 H ] ^ d w K T ] ) % $ ! s.& O X z.< : f f   : $ o - y h.J.! f D h.H..X*XG.) ] T ,.",
"p > n b m y g f f.F # o o y < y : 9 d s s = y ! x.H D K ) S.Z.L ^ d ( g.$ o   & : < 0 y d s K % - G F.c.! E d.F.^.P.,X>X1Xt.q.X.",
"q = t % a c C.F.f.F & o o y y s < P F 9 g > y D ^ D L ) ( ( L 5.Y.^.E.E.p .   o e D 9 * v.; f 0 0 f ! s.E Q x.F.G.I U.BXp.$.q.e.",
"k 9 ^ 4 m 9 } ) D F d O # % s s : F x s D 9 s d D G f ^ d P u U 0.4.W G G % :   : e e % f.F H s 0 y ! H D s.( L F t 6.MXr.* *.y.",
"9 s u g s s B P D g d f ^ 9 w g 9 F 2.9 $ O < y s D D P ^ P 3.-.&.X.W Y G w ! Q < E < f f.W = o o < g D G ! W ^ C.6Xr.0.C M b MX",
"< d t | y y i Y A.L.t W ! F H P ^ ) P # o o ; 0 : 0 ; > y / L &.;.I.#.D.G.u d.d.Q l.( J.A.y X @ o : < 9 = % ; s S.S.o. .,.o.>.7.",
"f w s s F g - y k L ^ d.H.C.d.G d f.: o & P z t d =   % u ^ P =.s k ..y ) d.Q.K.^.) F G _ X X 4 C.y G D o X % H _ / ,.=.o.o.-.n ",
"y m 9 g g Y ; 9 : u C.L.L.).Z.s s y O O : D f f.F t * ; 4 j ) C 4 C 5 F V S.W.mX^.P 0 f 9 X O 4 G W G.f # % < 4 C.` 2 b t.d ..;.",
"; h 5 g Y H t 9 - 5 ..y f G l 9 P d 3 3 X P f F t : ; t 4 z / :.y n 9 9 M M D f P : w x A @ . = j.D s & % & t y I / V 6 U <Xk 0.",
"f s t s k D y l t b X.N : : # o O     8 3 9 d # # o ; v 6.T y 9 t x K , p ,.e - # o . . . + 3 + 9 : o X O 9 @.R +.w.V a :...x w.",
"9 s f F K q k b q % s [ n 9 s     + . 7 + X q 9 ; , %.i k p t d % d v.d f i J p e & .   @ + 8 . X q 0 & s <.6 Z c x ..Z ` ,.Z M ",
"0 9 9 j ; V 4 t j * d k 1 X.b o   = 8 8 1.7 *.e.c k %.u 9 & y H < f 4.F 9 d g [  .q X   8 7 8 8 1 <.<Xd X.h b t.4 u o.t q.q.n a ",
"d J : i ; d X.Z d & N k k ( Y j u ; 3 8 1.d H P +. .#.H y y P w H L 6X^ g H s d ; ` K n d @ 8.5 u j L | V b 1 O.q.h ` &.T =.&.-.",
"< } f q 1 t M Y U d ; f ` P @.t 4 f @ 8 1...q F ^ y P u 0 L P ` j T g ^ s y h 6 > j _ V d + 9.7.U V ; ; x Z b N =.I 4.q.V =.6 0.",
"& y B ; % O % b -.; q t k L m ; > d 3 7 7.v 9 k ^ #.>.} y & m ^ f d H K q h h & m & s g J @ 8 Z Y U > 9 Z O.i y d 4.<XT ;.q.U &.",
"% O b y & # o b M m - t s s P f s ; 2 7 7.V - ; 9 s J | k ; d I.y t f F < F J % M i s H F @ 9.v +.U t i $.i >.4.y g >.j.U <.V ;.",
"y % : s y D d F | @.x f Y 9 H ^ T * 3 8 8.j t g M 4 j $.Y d 9 X.i ; k 9 : s p O n M P H b @ 8 7.N g j t  .$.d @.f o.U Y V [ N & ",
"f y : * > [ F g s h g ( K s f ^ J y 3 8 1.Y f { | | m s J 0 0 F g F g J s [ ; : N t ; u M 7 8.7.U , y s 4 x ; ; y y v =.V M &.M ",
"s D 9 % * : g g 9 9 f 0 D s ; F H 5.i.9.9.@./ F F W H 0 d 4 p P s f 9 l D u d g ` s t a r.i.0Xu.g b f F g d | , d j t ..M | 4X..",
"H y & ; y > s g : : D d d J t s ( P L d : F ] ( g I g y F g f g g y d d g L c 4.g f j b 5 5 #.x d ; g u : s d d e.b n z f y 5XF "
};
