/* XPM */
static char *_a0a03716ed749c5e8abf4bea4eeeaddQ92SRaMQ7Fuxpiri[] = {
/* columns rows colors chars-per-pixel */
"64 64 256 2 ",
"   c #040506",
".  c #06060A",
"X  c #07090B",
"o  c #090A0D",
"O  c #09050E",
"+  c #0D160C",
"@  c #111E0C",
"#  c #111D07",
"$  c #0C0B13",
"%  c #0C0C1B",
"&  c #0A0713",
"*  c #120C1B",
"=  c #110B15",
"-  c #0D1213",
";  c #0D1519",
":  c #121414",
">  c #121A14",
",  c #12131B",
"<  c #18171B",
"1  c #150F0F",
"2  c #152B04",
"3  c #182E05",
"4  c #13230B",
"5  c #162B0B",
"6  c #1A2D0A",
"7  c #152507",
"8  c #163204",
"9  c #1B3404",
"0  c #1D3C03",
"q  c #1B330A",
"w  c #1D3B0A",
"e  c #173609",
"r  c #192717",
"t  c #1B3311",
"y  c #1D3718",
"u  c #0F2306",
"i  c #213E03",
"p  c #223E0C",
"a  c #213603",
"s  c #20291A",
"d  c #233716",
"f  c #0D0B23",
"g  c #0E0B2C",
"h  c #0C0724",
"j  c #130D22",
"k  c #130C2C",
"l  c #180829",
"z  c #0E1027",
"x  c #171526",
"c  c #0F0A34",
"v  c #0E073B",
"b  c #110B33",
"n  c #170839",
"m  c #1E1736",
"M  c #240936",
"N  c #2D1834",
"B  c #1B2426",
"V  c #1A2E2D",
"C  c #243621",
"Z  c #252937",
"A  c #293030",
"S  c #231E1D",
"D  c #1D4202",
"F  c #1E4B01",
"G  c #1E420A",
"H  c #1F5600",
"J  c #224403",
"K  c #244B02",
"L  c #2A4D02",
"P  c #23440B",
"I  c #244B0B",
"U  c #2A4C0B",
"Y  c #2B440B",
"T  c #255302",
"R  c #2A5402",
"E  c #265A01",
"W  c #2B5C02",
"Q  c #26520B",
"!  c #2B540B",
"~  c #2C5C0B",
"^  c #255808",
"/  c #315C04",
"(  c #325C0B",
")  c #315605",
"_  c #244413",
"`  c #244B13",
"'  c #2A4C13",
"]  c #2B4C1B",
"[  c #264619",
"{  c #2B5414",
"}  c #2C5B13",
"|  c #2C551A",
" . c #2E5A1C",
".. c #265212",
"X. c #325C14",
"o. c #335D1B",
"O. c #33571A",
"+. c #314910",
"@. c #2D6302",
"#. c #2D6A02",
"$. c #2D630B",
"%. c #296607",
"&. c #326403",
"*. c #336C03",
"=. c #33640C",
"-. c #346B0C",
";. c #3A6C0C",
":. c #3A6A05",
">. c #2F7107",
",. c #347302",
"<. c #3A7403",
"1. c #367B01",
"2. c #3A7B03",
"3. c #34740C",
"4. c #3A730B",
"5. c #3B7B0B",
"6. c #367A0B",
"7. c #2D6213",
"8. c #2C6319",
"9. c #336314",
"0. c #396513",
"q. c #346B13",
"w. c #3A6C13",
"e. c #34641B",
"r. c #3A641C",
"t. c #356A1A",
"y. c #3A6C1C",
"u. c #357313",
"i. c #3B7314",
"p. c #3B7B14",
"a. c #3B741B",
"s. c #3C7B1C",
"d. c #36761A",
"f. c #2A4725",
"g. c #2C5621",
"h. c #325C23",
"j. c #375B28",
"k. c #34512E",
"l. c #356323",
"z. c #3A6524",
"x. c #3B6C22",
"c. c #3A6829",
"v. c #3D7224",
"b. c #3C7727",
"n. c #3B6534",
"m. c #3C7332",
"M. c #417E08",
"N. c #416D19",
"B. c #437B1C",
"V. c #437717",
"C. c #406C00",
"Z. c #426D2B",
"A. c #416A26",
"S. c #437425",
"D. c #437C23",
"F. c #43742B",
"G. c #447A2C",
"H. c #497A28",
"J. c #436A36",
"K. c #497B36",
"L. c #547932",
"P. c #65623A",
"I. c #13034B",
"U. c #140845",
"Y. c #140354",
"T. c #14025C",
"R. c #1C0758",
"E. c #1B154B",
"W. c #270748",
"Q. c #280A57",
"!. c #2D124B",
"~. c #31334E",
"^. c #15016B",
"/. c #160465",
"(. c #180176",
"). c #191271",
"_. c #26126E",
"`. c #322E73",
"'. c #4A2B53",
"]. c #420F7A",
"[. c #6C3B72",
"{. c #4E235B",
"}. c #35484A",
"|. c #3D466E",
" X c #514B51",
".X c #6B545E",
"XX c #4E7647",
"oX c #4C506A",
"OX c #70476A",
"+X c #895C6D",
"@X c #3B8103",
"#X c #3C8409",
"$X c #3E8415",
"%X c #3E8329",
"&X c #43880A",
"*X c #438313",
"=X c #43831B",
"-X c #468A18",
";X c #4A9517",
":X c #4C9611",
">X c #448122",
",X c #4C832C",
"<X c #4B8B2A",
"1X c #488725",
"2X c #53872C",
"3X c #4B9229",
"4X c #4A8636",
"5X c #528838",
"6X c #599539",
"7X c #4E952D",
"8X c #5A9E33",
"9X c #589248",
"0X c #679F54",
"qX c #190186",
"wX c #1A0094",
"eX c #060087",
"rX c #230297",
"tX c #31038D",
"yX c #302E84",
"uX c #1A00A9",
"iX c #2904B7",
"pX c #2802AC",
"aX c #3D27A7",
"sX c #4F358C",
"dX c #720FB1",
"fX c #561AA0",
"gX c #5D598A",
"hX c #635895",
"jX c #6C7194",
"kX c #6F72B2",
"lX c #1D04D0",
"zX c #2804CA",
"xX c #3704D9",
"cX c #3209CE",
"vX c #3703F0",
"bX c #4402DA",
"nX c #6D04CD",
"mX c #4703FB",
"MX c #5212F7",
"NX c #6A0DF0",
"BX c #6D27FA",
"VX c #5B26E1",
"CX c #6743F6",
"ZX c #8B538B",
"AX c #AB6D92",
"SX c #9C6DA1",
"DX c #C3758D",
"FX c #D876A4",
"GX c #8A2CFC",
"HX c #8006FD",
"JX c #A090AD",
"KX c #D0899A",
"LX c #F49AB2",
"PX c #D787A5",
"IX c #9B9ECC",
"UX c #FDACC9",
/* pixels */
"W 9.9 ` L L ,.R o.W 1.<.=XE J W #.u.2.1.4.#.*.#.*.p.1.<.1X*X*.u.E #.#.*.@.3.2.*.@X-X6.$X-XM.$Xp.6.>X<.%.R M.4.w.G.5Xl.v.,XK.L.7X",
"@.X.F v.P U T E *.-.R 9.p.,.*.,.#.p.W ,.@.<.u.@.,.1.,.W =.2.,.@.*.6.*.b.#.#X&X1X3.;X&X<.:X*Xt.R &XB.*XW 9.4.-.@.6X0.9.D.>Xm.9X3X",
"T ~ -.d.{ l.#.@./ q.K ~ @.*.,.,.@.=.F @.R L } E K R ,.E R W t.q.E %.<.D.6.K ,.#X,.*Xa.W *X;X3X$.&.2.&X$Xh.p.4.B.1Xy.m.F.%X1Xc.9X",
"W &.$.T R w.2.:.:.$.T K E #.-.&.T p.E &XH } E i.%.~ 3.E 8.9.=.p.@.D 4.a.a.@.W 1.p.,.p.&.B.-X;X@.2.s.-X-X,.s.5.9.<X<X<X9 l.b.t.4X",
"L X.i L } *.~ @.*.#.-.( R &.,.6.E u.&.&XK ~ T %X&.W =.L 6.4.&.#X2.J u.#X%.W @.6.B.#.,.<.i.,.p.w.b.W q.0.X.-.V.-.t.D.<X-.g.6Xr.4X",
"i ..0 L B.R ..E *.#.~ ;.:.5.1.W <.@.#.,.#.K Q 1.t.@.} ! @X@X*.@X&X,.#.#X*.W @X;.,.@.-.5.1.#.q.B.#.^ g.o.R ! w.B.y.{ m.v.v.D.Z.H.",
"K W R 9 0.P / R ! R W ,.*.4.@.K W @.E 1.*.*.Q K $XQ J i T ,.4.E @X*.E :.@.-X2.#.1.#.2.&X@X%.{ / $.@.t.W 4X&.0.V.2Xr.h.B.7X1XZ.( ",
"J R L w R D E E ~ i $.K ~ 2.#.F K J 0 / @.$.{ |.aX`.' F 8 #.:XT :.s.p.W @.@.=X<.*.Q ,.5.<.4.a.W W 7X;./ 7.@.R ,XB.,Xc.i.D.B.L.h.",
"@.$.&.W K E L #.-.*.*.-.L @.1.W %.6 i L @. .BXcXE.V R.d { 8.-X#...E 5.1.#X&X&X1X*X*.1.,.@.W p.s.w.:.v.q.;.;.W <Xz.v.5Xl.6X6X6X6X",
"L R W &.@.W E @.{ -.L &.~ D 1.@.W ^ 0 W M.aXbXqX_.$X%.E H 7.=.@.,.3.&.@.*.$X#X&X@.-.*.*.@.R &.-X4.&.W L -.=.#.w.x.A.V.b.H.9X;X4X",
"E L J J 0 T 0 L 0 T W E W W W -.%.F q.i $.iXmXxXiX~.W q.*.t.%.*.9.,.*.-.1.:X#X<.@.q.-.p.*.W R <.@.~ @.R ! L >.e.R ;.N.4XV.2XZ.5X",
"#.-.J R J R K L K W #.R L @.6.e.~.h.T :..XBXCXMXiXI.A _ g.g.}.yXf.;.*.,.@.-X&X-X=X&X&X-X*./ ( M.5.,.*.<.9.q.*.q.<.b.o.,XJ.H.h.XX",
"K L W W R W J Q ) &.@.R / @.,.W x Q.f.}.tXdXGXbXU.% n Y.)./.).d e 0.@.5.J n.=.2.$X2.$XM.:.@.W 4.-X2.5.;X*XV.:.0.2XD.w.2X] l.| XX",
"J R R U L 9 L L P R i =.$XR R E Q , Y.BXGXBXbXiX^.= f v /.A #.4.T e.W W J | y.5.W @.t.W ;.u.W W 7.&.-.s.&X&.K } B.<.F.g.h.n.z.X.",
"W R R G J 9 i K 0 e w } p.&.K #.i Q ; f MXBXNXlXY.T.^.f , ..T E R =.*.W 9.I B.#X@.@.q.E @.u.*.w.B.V.=.V.:X-X&.<.5.u.S.L q.n.5X9X",
"@.@.T W E Q L K J J 9 #.*.R *.&.P E $   & ^.(.^.f o X o k ; 9.` L &.#.-.W ..B.:X6.T &.p.5.p.9.~ <.7X! X.-X&X&.,.>Xt.&.x.( G.K.V.",
"E L J ;.J q Q W L w J L @.@.E *.K f.> X o '.OX!.1   % O % l r y 5 P 6.@.t.D / &XB.D *.( ' J / ' &.-Xx.<.0.t.w.t.6XB.w.q.' 9.a.h.",
"0 ` P R *...I i U 7 I K T Q J J i f.< o . < LXDXOX. ,   $ $ > 1 - o _ Q p.#.*.*.! ' ' =.l.q R @ H.,Xg.-.U 9.r.| <XH.y.9.e.z.L.Z.",
"J T u F @.J J 0 J i ! t 0 @.R @.9 + < $ O = SXAXl o 1 . % % o $ : > q w #.E #.#.@.! 9.{ &.9.E 9 U w.$.s.i.&.( ) B.z.z.-.x.A.K.K.",
"K @.W D R J L 7 W K w 4 u J J &.J [ @ r = = ZX{.* o   . b o o X r > d ` ' ,.$XR $.;.9.r.R 7Xq.K i a.p.q.i.r.c.{ L.o.S.V.A.x.x.2X",
"E K ~ 9 D R =.L J Q w 9 ` ..7 q @.d d P.'.N [.M [.OXKXM , X o o . r > Q -.2.*.@.W H.P -.I =XV.! w R -.B.<XD.1Xo.2XH.F.N.F.V.o.L.",
"@.R 6 K K K J J 7 q P J P E 0 + D Y < JXZXN '.+XZXLXUXDXO 1 o o % - r ~ Q W #.X.L X.J ,.W <.<.=.a.=.K a.H.1XV.e.B.<Xz.( A.F.c.J.",
"W E 9 D ~ 0 T i 9 w _ K J 0 w P p < 1 Q.VX[.M KXOXAXLXKXN > > - , r @ K #.T R e.K T J / W E :.p.<.3X^ W / B.x.X.=.H.o.&.r.A.n.n.",
"&.0 K J K 0 K &.5 0 R &.@.E 9 / C o   . BXxXrXtXfXW.ZXFX'.- - : - d y *.F L P 9.L Q &.&.9.{ 0 c.-.D.:.-XA.;.S.n.y.H.S.;.=Xo.] Z.",
"_ E E F 9 7 J L i 0 Q G 9 t ] R y *   $ qXvXvXqXU.f U.PXP.: $ - $ y [ 5.0 q } U W -.4.Q &.z.D a.R y @.a.B.4.G.G.] R 0./ 2XN.x.r.",
"7 J R L 9 r 7 0 0 K 0 0 d m p r Z & o   - h Y./.$   r KXP.} r @ @ t W p.q | P w J / a.y./ ~ 0 U ~ ..&.=.=.w.;.0.H.r.X.d X.x.4.S.",
"' P F K 7 4 6 a F 2 0 e q 4 C x Q.l o   o c I.% X 1 6 AX.X9 t.I I q ,.w.|  .e w w e ~ q.W w.! U 9.9.( ~ L 9.&.{ =.i.l._ o.N.,XK.",
"D J 0 J 6 # G T K T L F 5 e Q.o l = o $ X $ Y.(.j 1 ) fXdX} 0 $.9.R ~ ,.} I F @.v.J R W R ( R e R w.=.s.! ' x.G.t.V.=XN.H.5Xh.j.",
"J P a 0 i 0 ( U W E 3 i L 4 W.  :   o   o o h /.% - # sXNXf.F 0 { E 8.@.t.P ,.-.I D e o.^ P ;.R L Q X.a.:.} v.H.o.A.j.z.H.2X2X,X",
"E I 3 8 E P s  Xj.L Y 6 J 4 n -   o   $ $ % % % & o > ~.HXS 9.G D @.E Q I L $.J l.t.' G.-.K K 0 w p y.r.U ` Q V.| h.n.] j.S.S.5X",
"J L w 7 3 E 9 q 1  XXX+.' #.o + o o O * f % g % g $ % Z dXM C.e.K W %.2 I ` ` I I D D $.;.=.=.t.R K y.e.{ ` ` h.O.X.U ] o.c.9.0.",
"J W R p # P K L 6 d S A oXsXxXuXY.b iX% % k /.b v f f % fXM &./ T K $.E q.} E -.4.W Q I a.^ 5.@X,.=.r.m.{ J ] [ r.( o.=.J.N.A.2X",
"4 5 J @.E 9 p ~ 5 r E.cXmXBXMXvXvXzXvXc ^.% wXf c T.$ f * M %.W 5 D m.P K T %X#.8Xi.i.` %.E @.5.5.K l.g.y.O._ y ! O.J X.H.X.r.,X",
"D 0 7 L E 7 q J 6 f., g ^.mXlXmXiXuXqXcXrXc (.O g g % f & < f.3.F 3 R 0 ` 0 E R R =.$XI E P *.5.R T 0 K o.o.' ] I X...' r.Z.XX9X",
"e 0 P u R 9 e I 4 B % hXI.rXrXzXcXzXpXwXv U.I.c c $ f % % * !.W 9 D ^ 2 F F D $.K [ -.J R T E *.;X#X#.K ' | ' P q.B./ ' j.n.,X9X",
"] R E 5 -.&.#.K 8 R ( _.wX/.lXxXMXrXzXwXI.Y.I.% % $ $ X $ = n yXQ K *.@.Q E E @.F E 9.6.#XW Q I q.:.T =.i i.r.L -.C.G.j.x.j.j.A.",
"w 0 @.D D L #.K 9 _ i V f o (.Y.iXzXwXpX(./.iXzXiXg & ;   X X $ k r r r -.&.e.R ,.3.L @.q.) ' Y | r.^ a.=.~ m.i { X.1X9.G.XXj.m.",
"6 9 0 2 9 3 } K E t 4 6 ~.& % % g /.I.c ).Y.v v T.% % & f $ X : M U.k C J y.y.D @.h.}.B s s V Y P y.L ! P E / J { ( w.o.B.H.4XXX",
"@ 5 ~ e w 3 9 9 { 4 9 0 IXIXv % f f (.(.^.^.T.T.I.f f % % % o ; + < N B d j N U  X|.> < $ n n x J R w.q [ ( ( X.( X.! :.<Xn.S.N.",
"9 D 9 | q 2 L F 0 W 5 6 g R._.n b z f wXc c qXqXv % g X % ; % % y p d , $ = l k n l = = , o M ~.n.) H.} { ] P ' z.' W &.,XG.z.H.",
"5 E E } i W K L L 0 6 J JXIXjX/.v k z ^.qX/.g Y.qXg f % f & & f r E _ < $ * !.$ = M Q.W.l * j * m !.R 5.L h.w j.z.9.J &.X.0XA.Z.",
"4 J E L i L Q P { p { %.u I.).jXY.h $ g qXrXc v g g % c Y.$ ; I.z K T f., = l O M $ = * * l = n % o > ] q.P i ) v.=.( ( ) <Xx.g.",
"q P F 0 w J I L q # L 3 D XXIX)._.m f v U.eXY.k z f f z % f % & 4 w 9 E J - $ , l !.= & = = $ $ * l > r 4 r q g.Q ~ 9.=.d r.A.J.",
"J Q J I 3 0 J E i 0 K 2 D 3 `.SX{._.U.c qXc g g f & $ $ % f z c A 3 0 K R [ U m * O M = = o o = $ o $ X o > 6 [ G.*X-X7XP { g.z.",
"D Q &.( P 0 E &.F J K I D D t Y.yXgX; x g I.g Y.g z f % f g T.o x 8 u.6.E _ @.~.l $ $ j l j l * $ = o = = y p n.a.a.:.=Xx.c.l.n.",
"0 q ! P K 0 W @.@.0 T 2 J G # }.`.E.~.B % Y.b c z z f f ^.f % r t D T @X4.! G B k M O o & < O : j = , * * < l.a z.N.L F.S.F.x.y.",
"F 7 K 5 G 0 E T &.i e e J F 5 G oXkXI.e y f $ f b Y.).v I., $ E F F 9 L 0 Q [ r E.% * = $ X = l = j . = f.9.U J R | 0 z.n.f.r.L.",
"$.D #.D I K @.W @.F E @.D X.} F w hXJXB T , = r U.I.@ m R.V I &.9 #.E L Q L ~ u.y : o * o $ = $ % - > Y i ] =.R 4.O.U j.n.5 h.K.",
"F K J @.T F E &.0 W K #.E ^ W #.W d /.oX0 N < &.2.K K r e.l.K T g.T J D ..K L q.f.P + $ . $ o o o : L X.` ! U 0.a.| X.S.j.] | 9X",
"0 L P 3.K K K #.J Q 3 T T 3 Q F ~ F  X).Z M d E ,.W J 0 *.E D 5 v.,.} J P J 0 q.9.p.$.` t d d s s Y x.L } U I / y.q.} O.o.t.b.j.",
"E F T T @.@.3 T E I T R T 5 Q K 4 ) D oXQ.sX].6 W @.e J >.E E L R E } H 2 E K 0 I &.K J K / i.J ~ K 0./ ~ i i ] R Y ' | A.y.x.X.",
"J ~ F E W @.9 D 0 K E R Q P 9 E F 9 D ` hXY.{.P @.-.R 9.u.E ^ =.J ..P W K @.' X.L J ~ 9 J :.*.Q e Q a.;.&./ i i -.J @ ! 4XU o.y.",
"e Q i W -.@.F 0 0 0 F K ^ w W @.T D K F ~.fX!.<.,.@.#.K ( L e | K ! 0 9 J I } w.1.W >.P K W K | 9 0 2.v.p.i.K ' ! 0.( d 0.>X&.c.",
"E ^ J T E @.T ^ J D F 8 W 6 ! 6.L %.+.E C nXl d @X@.#.0 } E 0 F J &.6.0 D q W ^ ,.8.D $.E ~ P P Y i ( *.R B.R P R B.r.] e.t.( H.",
"F H E %.%.D { I w 5 J R 3 [ 5 R @.0 F 9 a Z tXS K K K 0 } K F L # R $XE W e J i.%...I Q W 6.T K I W w 7.{ 9.q X.( ( 9.U V.Z.' g.",
"F D D { 9 =.P P ! q ^ { 3 q.9 J 3 @ t.T 6 i HXS W *.T K T 7 F *.i E 1.@.F E K E E ~ ' 3 J 2.R 5 0 p.,.9.L L O.A.P R 9.' N.c.O.L ",
"E %.D G q L t.} W 5 X.R X.@X,.L F w K L R U ].' *.&.s.&.H L &.H #.&.3X1.E #.Q R 9 ,.-.U R @.<.i J W $.W 0.' t 9.N.Q ;.j.;.z.j.c.",
"q 7.W G t J  .;.W R 9 E 3.&.u.K D @.9 $.L t.Y $.1.T *.Q F / *.,.Q 4.W 1.K K ..P J I u.t.&.&.L o.q.( e 0 ) g.' o.z.;.B.S.X.z._ Z.",
"5 J ..0 7 @ # [ v.9 P F $.&.{ e 9 L K %.E { F W ,.d.t.t.K 5 e.,.W R #.%.D Q ^ 5 | 4 / ^ E l.7 ~ *.:.q G ! e.i L R V.=X4.c.v.( j.",
"5 # _ Q 5 u 4 P g.} 2 D ^ R *.E L q L K 0 ~ 5 9 J Q @.q.~ 3 R =XK D W @.8 W $.4 ! P W #.@.9.J K a.9.0 J O.Y b.s.K R G.#X0.b.9.c.",
"K 4 0 E K @.R @.-.s.W E *.D #.*.3.8 =.p _ ~ J E | J } | %.E J e.P e W J D T I + g.! W &.R @.R [ e.R W K r.h./ i.R x.&.;.X.} } 4 ",
"E K 0 5 9 7.@.^ K ..W 1.%.E E ,.=.F q w Q =.E @.$.$.{ T @.K K -.W $.W 7.E 7.9 0 { J 9 ~  .I P 3 ~ t T E 0 W 0 9 K K ) z.X.| j.g.",
"H %.0 7 5 i W W D D T K @.E 0 E *.@.T F E E ,.#.*.,.>.K E i P *.T E D R @.R R W ,.T K P 0 G K W L ..R W W T } w R ! J e.| 0.5Xt.",
"#.L 4 e K q T W 0 D @.W E W i E ,.<.E i 3 #.1.4.W *.W K @.E @.W W K T E E / &.B.W Q $.P w D E @.E 8 W R P T E R H.` { ) E L 6X%."
};
