/* XPM */
static char *_f7d0f8fd1eb4443c0e2d29a5d39b10awmbyW6vvRwz8WPk1[] = {
/* columns rows colors chars-per-pixel */
"64 64 256 2 ",
"   c #040506",
".  c #06060A",
"X  c #07090B",
"o  c #090A0D",
"O  c #08070B",
"+  c #0E180C",
"@  c #111D0B",
"#  c #141A0F",
"$  c #0C0C13",
"%  c #0C0C1B",
"&  c #0B0714",
"*  c #110C15",
"=  c #120B1B",
"-  c #180C1F",
";  c #0E1213",
":  c #0E1517",
">  c #111414",
",  c #131C14",
"<  c #13131B",
"1  c #151B1B",
"2  c #1B1A1B",
"3  c #132505",
"4  c #162C05",
"5  c #182D05",
"6  c #14240B",
"7  c #162B0B",
"8  c #192D0A",
"9  c #19240C",
"0  c #163204",
"q  c #1A3504",
"w  c #1D3B03",
"e  c #1A330A",
"r  c #1D3B0B",
"t  c #173209",
"y  c #1A2B13",
"u  c #1C2A19",
"i  c #172517",
"p  c #1B3613",
"a  c #213D03",
"s  c #213D0B",
"d  c #243709",
"f  c #233914",
"g  c #212F17",
"h  c #0D0C24",
"j  c #0E0D2A",
"k  c #0D0728",
"l  c #140B23",
"z  c #120C2B",
"x  c #17092A",
"c  c #161926",
"v  c #0E0A32",
"b  c #0E0636",
"n  c #130B3B",
"m  c #170936",
"M  c #131137",
"N  c #0D1121",
"B  c #271428",
"V  c #250937",
"C  c #2E163B",
"Z  c #1A2626",
"A  c #1A2F30",
"S  c #263624",
"D  c #282A35",
"F  c #2C3234",
"G  c #251B1D",
"H  c #1E4202",
"J  c #1E4C02",
"K  c #1E410B",
"L  c #1E5201",
"P  c #1C4317",
"I  c #224402",
"U  c #244B02",
"Y  c #294C03",
"T  c #22440B",
"R  c #244B0B",
"E  c #2A4D0B",
"W  c #294707",
"Q  c #255302",
"!  c #2A5302",
"~  c #265A01",
"^  c #2B5C02",
"/  c #25520B",
"(  c #2A540C",
")  c #2C5B0B",
"_  c #275C0B",
"`  c #315603",
"'  c #325D03",
"]  c #325C0B",
"[  c #35570D",
"{  c #234313",
"}  c #244B12",
"|  c #2A4C13",
" . c #2B4D1B",
".. c #264519",
"X. c #2A5313",
"o. c #2C5B13",
"O. c #2C541B",
"+. c #2D5A1C",
"@. c #265414",
"#. c #315514",
"$. c #325C14",
"%. c #345D1B",
"&. c #34571C",
"*. c #334A19",
"=. c #2D6302",
"-. c #2D6A02",
";. c #2D620B",
":. c #2E6B0A",
">. c #276102",
",. c #326402",
"<. c #336C02",
"1. c #33640C",
"2. c #346C0B",
"3. c #3A6B0C",
"4. c #3B6A07",
"5. c #2D7103",
"6. c #347202",
"7. c #3A7403",
"8. c #357B01",
"9. c #3A7B03",
"0. c #34730C",
"q. c #3B730C",
"w. c #3B7B0B",
"e. c #377B0B",
"r. c #2E6213",
"t. c #2D6618",
"y. c #336314",
"u. c #3A6513",
"i. c #346A13",
"p. c #3A6B13",
"a. c #34641C",
"s. c #3B641D",
"d. c #356B1B",
"f. c #3A6C1B",
"g. c #3B7413",
"h. c #3B7B14",
"j. c #3C741B",
"k. c #387718",
"l. c #284723",
"z. c #2C5623",
"x. c #325C23",
"c. c #375B28",
"v. c #314C33",
"b. c #356424",
"n. c #3A6524",
"m. c #3C6C23",
"M. c #3A6829",
"N. c #3C7324",
"B. c #3B7726",
"V. c #3B6434",
"C. c #3C7132",
"Z. c #427709",
"A. c #416C18",
"S. c #437C1C",
"D. c #437618",
"F. c #426D2B",
"G. c #416A26",
"H. c #437425",
"J. c #437C23",
"K. c #44752B",
"L. c #457A2C",
"P. c #497A27",
"I. c #436936",
"U. c #497A36",
"Y. c #517533",
"T. c #5D5C39",
"R. c #140647",
"E. c #130353",
"W. c #15015B",
"Q. c #1A0958",
"!. c #150F51",
"~. c #2C1846",
"^. c #2D0A4D",
"/. c #273747",
"(. c #2E2850",
"). c #170367",
"_. c #1D1965",
"`. c #160173",
"'. c #180277",
"]. c #0F0373",
"[. c #270B63",
"{. c #2E1270",
"}. c #352A71",
"|. c #523352",
" X c #41106D",
".X c #663970",
"XX c #34444E",
"oX c #3D4163",
"OX c #4E5350",
"+X c #4F7547",
"@X c #4C4C6D",
"#X c #724B6F",
"$X c #606363",
"%X c #A77F7A",
"&X c #3B8201",
"*X c #3C8308",
"=X c #3D8317",
"-X c #43850C",
";X c #438214",
":X c #43831B",
">X c #478A17",
",X c #4B9318",
"<X c #4F9411",
"1X c #438123",
"2X c #4D832C",
"3X c #4C8B2B",
"4X c #478627",
"5X c #53872C",
"6X c #4A8636",
"7X c #528838",
"8X c #599539",
"9X c #4D942C",
"0X c #609A36",
"qX c #589248",
"wX c #679F54",
"eX c #1B0287",
"rX c #1C0295",
"tX c #220391",
"yX c #342589",
"uX c #1902A3",
"iX c #2502A9",
"pX c #2801BA",
"aX c #3500B4",
"sX c #3F10BD",
"dX c #4B098E",
"fX c #492F90",
"gX c #752B9F",
"hX c #534F8D",
"jX c #6A72A5",
"kX c #686799",
"lX c #2C00C9",
"zX c #3202D7",
"xX c #2E00DC",
"cX c #3603E5",
"vX c #3C03FB",
"bX c #2100E7",
"nX c #6A07CB",
"mX c #5817FB",
"MX c #4C0CF2",
"NX c #6E08E3",
"BX c #5421FC",
"VX c #7230FB",
"CX c #5702CA",
"ZX c #92638A",
"AX c #BC6E90",
"SX c #A25591",
"DX c #C97C9B",
"FX c #C07DA8",
"GX c #811AFC",
"HX c #7E89AE",
"JX c #9598A4",
"KX c #D1859A",
"LX c #E295B6",
"PX c #E7A0AE",
"IX c #9EACC8",
"UX c #968CC7",
/* pixels */
"^ y.q } W Y 6.! %.=.9.7.:X~ I ^ 5.g.9.9.6.<.<.=.8.q.8.w.S.D.6.0._ =.2.1.=.8.8.=.*X>Xe.=X>X-X=Xh.w.1X8.=.! Z.7.f.L.7Xb.N.2XU.U.9X",
"=.$.J N.T E Q ~ <.2.! y.w.6.-.6.<.=X~ -.2.6.-.5.-.<.6.=.3.7.6.-.6.w.7.B.=.=X;X,X0.,Xw.7.<X;Xd.! -XS.:X^ a.0.0.,.5Xu.$.4X1XC.+X9X",
"Q ) 2.k.( b.-.=.^ i.U ) =.<.e.6.^ ) J =.Q Y ;.Q ~ ^ 8.~ / ) 1.3.! =.6.h.j.Q 7.*X<.-XN.^ -X,X9X;.=.9.-X*X+.h.w.J.3Xf.C.H.1X4XB.qX",
"^ ,.;.Q ! g.9.4.1.1.! U ~ <.2.=.~ h.^ -XQ ) ! g.) ~ 0.Q y.0.i.h.=.J g.j.j.=.~ 8.h.8.h.,.=X>X,X>.9.=X4X>X6.S.q.y.9X3X3Xq b.L.g.6X",
"Y %.w U $.,.) =.<.-.2.) ! ,.<.e.^ g.<.Z.Q ) / ;X=.~ ,.~ h.8.1.w.9.U 0.e.) ) =.w.B.<.6.7.g.7.*Xp.B.^ a.u.$.4.;X2.f.1X3Xp.z.8Xs.6X",
"w X.a U D.^ @.Q <.-._ q.4.w.6.=.6.^ 8.8.=.Y _ <.w.^ ] ~ w.8.7.&X>X7.:.&X<.,.&X0.7.=.<.*X8.-.i.J.5.Q +.x.^ ( p.J.s.X.C.N.N.J.F.L.",
"U ^ ! w u.T ' ! ( ! =.<.4.q.-.U =.=.~ 8.<.=.I ^ :X~ U w ! 6.7.) *X=.=.0.;.=X9.6.6.-.8.<X&X;.) ` ;.=.d.^ 6X=.p.A.2Xf.x.k.9X4XF.] ",
"I ! Y r ^ H ~ ~ ) a ) J ;.9.=.J U w w 2.=.=.Q Q >X-.^ H a -.-X^ 4.h.=X@.yXyXhXs.6.Q -.w.6.i.N.^ ^ 9X3.' ;.=.Y 4X:X2XM.D.:XS.Y.x.",
"=.) =.^ U ~ Q 2.g.,.,.q.! ^ 8.^ 1.7 q ~ -.^ Q =.&X=.=.~ 6.r.1X,.@.| l.!./.!.cXMXL.=.w.<.;.' w.k.f.7.H.2.q.3.^ 3Xn.f.7Xb.0X7X8X8X",
"Q ! ' ,.=.^ ! =.X.4.U ,.( U 5.=.=.! I ! =.<.U ~ ;X=X=.>.J t.:.-.-.w.<.-.^ _.{.vXfXw.^ 5.,.J ) <X3.,.^ U 3.1.-.3.m.F.D.B.L.qX,X7X",
"^ Y U I w Q w U w Q ^ ^ ! ^ =.7.=.R 4.Y ! =.>.Q -.~ >.6.@.b._ p.6.;.6.0./.pXcXMXlXf.k.p.7.^ ` w.,.) ) Q / Y :.a.! 3.A.6XD.5XH.7X",
"-.2.I ! I ! U Y U ^ =.Q ! ^ w.g.! a.Q ) ,.^ 8.<.I } >.>.=XF }.v.z.x.1.F Q.aXBXVXGX$X-X<Xi./.| 6.w.6.6.7.y.i.7.y.7.B.%.2XI.4Xx.+X",
"U Y ^ ^ ! ^ I ! ` ^ ,.! ' =.<.=.! R ! ) <.-.=.8.0.! ,.U ,.-.z._.).W.).k = m MXGXgXdXOXI.).Z ] Z.>X9.w.,X>Xh.3.d.7XJ.p.2X .b.O.+X",
"I ! ! E Y q Y U s Q W y.:X^ Q Q Q I Y ,.<.~ ^ U Q U H ^ U <.) 0.A _.v h h `.aXCXBXVXVXE.c u.>.L r.,.i.h.&X,.Y ) ;X7.F.x.x.V.G.X.",
"^ ! ~ r a q I U H q w o.g.' U ,.U ^ I ,.;.,.J J Y T O.! 5 3.~ _ T < h ).E.E.lXMXBXMXh % ! 4X=.H.D.S.2.g.<X;X,.7.w.g.P.U i.I.7XqX",
"=.=.Q ) ^ / Y U I I q -.6.! <.6.w Q 5 ^ ) U 4.I ~ w X. .( ) M.Y $ l &   & N `.'.[.$ . c w.0.[ =.7.9X( $.,X;X,.6.J.i.,.m.) L.U.g.",
"^ U I 2.I e / ) U r I U =.=.^ <.I J.I U ! ~ U ! Q ! K s { 9 O.1 z $ & $ O & ^..X|.. o 1 g [ J #.,.>XN.7.u.d.p.y.8XS.p.a.| y.g.x.",
"w R s ^ <.X.U a ! 6 E Y ~ / I w U o.! I T H 1.^ H 5 6 6 , $ 1 ; $ $ o = & #XSXLXG o & < l.t Q 6 P.2Xz.2.E $.s.+.4X2Xf.r.a.G.Y.F.",
"I Q 3 J =.I I w I a E 7 q =.^ <.q 8 w =.q.4 W ^ J @ 6 7 u $ X $ $ & o X o - DXAXo   1 i u %.U q ( y.) h.g.<.[ ( S.G.s.3.m.M.7XU.",
"U =.^ H ! I Y 6 ^ U r 6 3 T w ,.U ! U U -.! U 5.2.O.} y : 1 X X o R.& . > - ^.SX* o i u f 9X1.( a j.=Xp.g.a.M.#.Y.%.B.D.G.m.m.2X",
"! U ) q H ! 1.! I ( w r | @.4 t ^ ' K =.<.! =.-.=.T ;.6 u X o X o ; B FX#X|.^.|.C |.+Xf K S.S.[ r Y 2.:X3XP.4Xu.7X2XL.A.K.D.%.Y.",
"=.! t U U U I a 6 8 T I T Q H @ U U T a Q Q ^ U =.^ / > $ ; o o > $ DXPXLXSX#X|.C ZXKXD f <.7.^ j.4.U f.P.:XA.a.g.5Xs.] G.H.M.I.",
"=.~ q I ) w Q a q r } Q U q 8 K U ,.U I 1.H ~ I =.H E y y : ; ; > B DXPXAX.XKXC @XCX[.o i q <.:Xw.3X~ >.,.S.m.X.1.P.%.,.s.M.I.V.",
"=.w U I U w U ,.4 q ^ =.^ ! a ,.) <.~ ! h.^ <.<.<.I g.y p ; > ; > |.DXSX^.gX XtXcXVX%   $ F a x.1.J.7.1XG.p.H.C.f.L.N.3.>X%. .F.",
"K =.Q H e 5 a U q I Y r q 0 ) ^ H ~ ~ L ! ] i.~ @.I <.0 f : ; ; ; $XKX^.$ n rXxXcXrX$ X ; /.I c.| s ' h.1XZ.S.U.X.Y u.' 7XA.f.n.",
"7 W ^ ~ t 8 8 a w I q H 0 H Q Q ^ U ^ Y U q Y / [ / Q R 7 y u + d T.KXG o $ R.`.h X X o   D @ l.~.P =.] 3.o.2.y.P.A.$.f $.f.q.H.",
"{ a w U 8 @ 3 w q J H 5 q Q J q Q ^ U d.1.Q H J U ( s ) + w M./ ` #X%X..X X j b n X X o V {.B D f x.$./ ~ m.<.E 1.g.b.| x.A.P.+X",
"T E a I 3 @ R ~ Q U / I U q w ^ ^ U =.e.0.-.U q J ! X.y.H o.K ) ' nXgX7.& % `.E.& o X X * * O ~.f | 1.4XW R N.L.a.D.S.f.P.5Xn.%.",
"I U q q Y I Q U >.^ 5 I Q I U Q ~ ! U ! ! s ..o.U r + / ~ y.Q q S NXfX/ $ % ].N $ o   $ o o X ^.8 ..) f.1.) D.Y.x.G.n.n.P.5X3X4X",
"Y T q r U I q E q J T q w I w a q 5 q r 6 f { ^ o.s r I =.( _ K G nXOX: $ $ $ % % & $       X V , T S.y.o.OX$X2 X.x.V.l.c.P.F.7X",
"U U w 3 5 ! I Y w q ( I Q / q 5 6 q J 7 p r } I :.U ! I I q k.r.B nXD $ % j % n h % % ; o X & c U Y I.$X|., f z.&.&.E | s.M.y.u.",
"T ^ U s 6 I I U 3 ! ! ( U ^ U t H R ^ ^ Q ^ =.-.! H ! Q ^ =.-.,.~.dXh j % n v W.j h % pXv W.rXcXhX$XF S { a  . .p.) +.1.I.A.G.5X",
"6 4 I =.Y w T ) 5 r ( ! / 0.q U y.t ;.~ ^ ^ ^ =.R T ^ =.0 H ^ ;.C - % % ).b % rXh `.j cXpXvXvXmXBXMXsX_.F #.{ p X.O.I $.L.$.s.2X",
"H r 3 U ~ 3 e I 7 W ! r q ;.,.1.0.r U w ~ ~ R z.H Q ~ H y Q +./ - & % % h k & `.v rXzXeXiXpXxXzXmX'.b < c. .+.*.U $.E | s.F.+XqX",
"r q H 3 _ q t R + s w 6 e I y.,.! w q 7 w =.o.U ` ;.~ I 7 L x.(.* * = z . j h W.b !.eXuXlXlXlXrX'.R.hXj Z u.X.I f.D.,.| V.c.2XqX",
"O.! ^ 7 1.,.-.Y H Y ) a i.7.1.6.I ! Q r 7 L ^ K U 4 y.3.7 t.fXm * O . % % % M b R.R.iXlXrXBXxXzX).rX{._ a j.x.Q 2.3.K.b.m.c.M.G.",
"q w >.U H U -.U q { U s ^ ` 2.,.{ ( Q q Y Q ;.~ e 6 y A 1 z $ X   $ $ . M uXlXuX).`.rXeXbXaXE.eXo h Z j.%.^ m.T #.#.4X$.K.+Xb.C.",
"8 q H 3 q 5 o.U ! 7 @ q I I ( u 1 > u XXu Q d.d.T R u < R.C $ o % $ % % % ).n Q.E.`.n E.W.h $ % o (.R Y ) o.[ a o.] p.a.D.P.U.+X",
"6 7 _ e s 5 q w ! 0 r H 3 9 c x m * > 1 @XoXd ~.l , Z C : > , & $ % h h % R.E.W.).].).`.k N h R.IXJXl.f R Y ;.o.] $./ 4.2XV.L.A.",
"q w e o.8 5 U J w ! 3 U d S (.m * & * & l m z l * = ; 9 r y % % % % o h h v uX'.n v eXk z v m {.W.x z.%. .O.T | s.| ' ,.4XL.m.L.",
"7 Q ^ o.w ! Y U Y q w T (.m = - = V ^.^.V = O ^.* & > 6 R y h $ X j % h j '.E.v E.eX'.h z R.!.jXUXJX! g.J x.s c.M.r.U ,.[ wXN.F.",
"6 I ~ R I ! X.R  ...f > X > m * l & $ = - x & x % ; i Y w c R.h h R.v h j b b R.uXeXj $ N R.jX[.v u H B.p.T r _ N.1.[ ] ! 3XN.z.",
"p U I w e I U r 6 i , + m - o * * < o = ~.< & * $ | e o.w + % o h X j h % h j !.eXR.b h R.[.!.IX$X*X,.Q I I a *./ ) 1.p.s n.G.I.",
"H ( Y U 5 w I a +   o $ o o = o $ o * V = z V E f -.J :.~ Z v j h h % . % h k v j rXb n ).@XHX}...d.I y.T q r O.K.>X:X9Xs | z.n.",
"H X.,.) a H ~ ) 8 = = $ $ & = x - x x $   x F I l.r.>.~ Y c . ).% h % j h N W.j W.j c 1 hX}.Q.OX=.o.q w | E W c.j.j.4.>Xm.M.n.V.",
"H e ( T U w ^ =.S * & - l = * * * = X o R.x 2 y ^ / Q 6.-.i i h j `.N j j % b v R.N D /.Q.yXF e.w / U r V.t x.R n.A.Y K.K.F.m.j.",
"J 3 U 7 T w ! Q -.7 , o * = l $ o o $ % . (., 7 Q r.w ] k.H H ; % E.v ).W.j c $ % 7 E E.hX$XC.W 2.H Y a D.| #.I ! O.a c.V.l.%.5X",
";.w -.I R U =.~ ,.a s i * * $ * $ o l $ , S ( 8.=./ 7 E e.;.~ ;.i Q.R.r !.R., $ N _ A HXkXp ! ' 9.[ U U r &.' Y w.#.E c.V.y z.U.",
"J U Y =.Q U ~ =.w ^ I R ; & & o X $ o , e | ~ 8.&XJ J e q.d.U Y x.T p w r.a W - C ) oXQ.S ! ^ w Y U ' a.{ E ( f.j.X.$.H.c. . .qX",
"w Q H 2.U U J <.I ) q ~ U 9 f e y y %.U w R -.! 5.^ I a 0.Q H 4 N.<.y.U I U w g V /.{.OXw ^ [ K r E f.I o.E E ` f.d.o.#.n.d.B.c.",
"~ J ~ Q =.=.q Q Q T U Q ~ 7 / U 6 Q U ~ 6 U ~ U =.=.t I 0.~ >.U Q ^ ) I 4 U g  XfX[.@XI ~ ,.4XH R a 3.' ) U a | ! I  .O.N.f.m.[ ",
"U ) H ~ ^ =.t H w ! ^ Q @.R q ~ U q I ~ 7 w U 8.^ 4.) y.0.U Q y.T @.T ~ U 5.*.^.W.jXS 4 I 4.! ) q ! S.1.' ] a I 3.I @ ( U.Y a.m.",
"q @.s ^ 0.=.J w w H U w _ q ^ =.U / I L ~ w I <.8.~ >.Y 2.Q K X.I / U I T U +.^.dXXX&X~ J ' Q &.e I Z.h.q.g.Y  .( y.) S p.1X,.M.",
"Q _ H Q =.~ Q ~ I K U q ^ 7 / &X^ J ^ / q =.R E *X^ -.w o.Q q U J ;.i.q U 5 f V NXv.K =.^ ! E r T T ( <.! :X^ a ' S.y.*.s.b.1.L.",
"J L ~ =.=.H ) { a 7 Q ) 7 ..8 ! =.w U q t w T o.Q I U q ) E J Q @ ! <X>.U q B {.F f L @.Q -XL U Q ^ r o.X.$.8 ( ( ] y.E D.F.{ &.",
"J w J @.t 1.{ I ( 4 / / 7 2.q a 7 6 b.I w U Q 2.^ <.~ U Q 6 J -.w Q =X>.U ! - GXK r.( 4 R 6.Q q w g.q.y.Y ` | U.T ! y.E A.M.&.! ",
"~ =.H R q ! d.$.^ 7 +.! ] &X6.U I w U U ! / -.<.<.<.k.=.Q U <.J 6.=.9X6.~ -.f {.q 4.:.E ! -.7.a U ) ;.=.3.| p y.D./ 3.n.p.x.c.m.",
"e r.~ K y I +.2.) ! q ^ q.=.g.R a ^ w ) ! s.U 1.8.Q <.Y J ' <.<.U g.,.6.J _ ( f I T g.d.,.=.Y y.i.] q q ` z.| &.n.4.S.H.$.n.{ F.",
"7 U X.q 6 6 6 { N.4 H I ;.=.o.q w U ! ^ =.$.w _ <.B.d.d.U 8 a.8.~ ( -.:.H Q / t O.6 ^ ^ ^ M.3 ( <.,.e K X.a.I Y ! S.:X2.V.m.] c.",
"7 + P U t 6 @ { %.) 4 J ! ! -.~ Q 4 U I H ( 4 H w _ <.i._ 5 Q :XT J Q =.w ^ ) 7 E R =.-.=.t.H I S.y.H I *.W B.j.Y ! L.*Xu.B.y.F.",
"U 6 w ~ U =.~ =.:.k.,.~ :.J -.<.0.q ) R K o.I ^ O.I ) z.:.~ w a.K w @.I H U Q + O.( ) =.! >.Y  .a.! ^ U s.x.' g.^ f.1.3.#.;.+.6 ",
"~ U q 7 q r.=.Q U X.^ 8.=.~ ~ 6.,.J w T R 0.~ ^ :.;.O.U =.U Q 2.~ -.! ;.Q t.0 q X.W q ) +.R T 5 ( p Q ~ w ;.w q U I ^ n.$.o.c.O.",
"Q ~ H 7 8 a ^ ) H H ~ I =.~ q >.<.=.! w Q ^ 5.=.,.6.-.Q ~ a R ,.U _ w ;.-.Q U =.6.Q U I w H U ^ U @.! ^ ^ Q o.s ! / I %.O.i.7Xd.",
"-.Q 6 0 U q Q ^ w H =.^ ~ ) a ~ 6.8.^ r q ,.8.9.=.<.^ U =.^ ^ ^ =.Q J ~ Y 4.,.S.) ~ =.{ r K ~ =.~ q ^ ! I Q Q ! P.| o.` ~ Y 8X=."
};
