/* XPM */
static char *d0a386296ff74b5ce6ea8d5215b21093V1lJ2YUk8a5qIO6R[] = {
/* columns rows colors chars-per-pixel */
"64 64 252 2 ",
"   c #0E1B0B",
".  c #111D0C",
"X  c #141A0B",
"o  c #171916",
"O  c #0A0C0B",
"+  c #231E16",
"@  c #132506",
"#  c #162C04",
"$  c #182D05",
"%  c #13240A",
"&  c #162B0B",
"*  c #192E0A",
"=  c #173203",
"-  c #1A3404",
";  c #1D3C03",
":  c #1A330A",
">  c #1D3A0A",
",  c #173905",
"<  c #1C3711",
"1  c #1A2717",
"2  c #213D03",
"3  c #213E0A",
"4  c #262319",
"5  c #322719",
"6  c #223F14",
"7  c #363F19",
"8  c #182121",
"9  c #272A26",
"0  c #37372D",
"q  c #363B35",
"w  c #2F332B",
"e  c #4B2F17",
"r  c #473D35",
"t  c #5C3B21",
"y  c #683F2C",
"u  c #1E4302",
"i  c #1F4B01",
"p  c #1E420A",
"a  c #1F4C08",
"s  c #1F5101",
"d  c #224402",
"f  c #244B02",
"g  c #294D02",
"h  c #23440B",
"j  c #244B0B",
"k  c #2A4D0B",
"l  c #284703",
"z  c #255302",
"x  c #2A5303",
"c  c #265A01",
"v  c #2B5C02",
"b  c #26530A",
"n  c #2B540B",
"m  c #2C5C0B",
"M  c #265D0B",
"N  c #305603",
"B  c #325D04",
"V  c #325C0C",
"C  c #335908",
"Z  c #244312",
"A  c #264C13",
"S  c #2A4C14",
"D  c #2B4D1A",
"F  c #264919",
"G  c #364C18",
"H  c #2B5413",
"J  c #2C5B13",
"K  c #2C541A",
"L  c #2E5A1C",
"P  c #265213",
"I  c #325C14",
"U  c #345D1C",
"Y  c #335719",
"T  c #266202",
"R  c #2D6302",
"E  c #2D6A02",
"W  c #2D630A",
"Q  c #2E6B0A",
"!  c #276C00",
"~  c #326402",
"^  c #336C03",
"/  c #3A6C02",
"(  c #33640B",
")  c #3A660C",
"_  c #346C0B",
"`  c #3A6C0C",
"'  c #2E7202",
"]  c #347302",
"[  c #3A7403",
"{  c #357B02",
"}  c #3A7B03",
"|  c #34720B",
" . c #3A740C",
".. c #3B7B0B",
"X. c #367A0C",
"o. c #2E6312",
"O. c #2D6419",
"+. c #336314",
"@. c #3A6512",
"#. c #346B13",
"$. c #3A6B14",
"%. c #34641C",
"&. c #3A641D",
"*. c #356B1B",
"=. c #3A6C1C",
"-. c #367313",
";. c #3B7313",
":. c #3B7B14",
">. c #3C741A",
",. c #3C7A1C",
"<. c #377619",
"1. c #354A29",
"2. c #2D5724",
"3. c #325C23",
"4. c #375B27",
"5. c #39443A",
"6. c #34552C",
"7. c #356322",
"8. c #3A6524",
"9. c #3B6C22",
"0. c #3B652B",
"q. c #3C6B2A",
"w. c #356825",
"e. c #3D7223",
"r. c #3D742A",
"t. c #3B7925",
"y. c #3A6534",
"u. c #3C7132",
"i. c #2C6520",
"p. c #1E6114",
"a. c #417B08",
"s. c #416D18",
"d. c #427D14",
"f. c #437B1C",
"g. c #447518",
"h. c #406500",
"j. c #46483A",
"k. c #4A523A",
"l. c #514D30",
"z. c #664A38",
"x. c #7B5436",
"c. c #665337",
"v. c #416C24",
"b. c #436D2B",
"n. c #406627",
"m. c #437425",
"M. c #437C23",
"N. c #44752B",
"B. c #447A2C",
"V. c #497C2C",
"C. c #497824",
"Z. c #446835",
"A. c #497B36",
"S. c #547933",
"D. c #507C2B",
"F. c #73712D",
"G. c #3B4844",
"H. c #3B5551",
"J. c #474D46",
"K. c #495549",
"L. c #555544",
"P. c #4A5B56",
"I. c #565B54",
"U. c #534D48",
"Y. c #675643",
"T. c #735D51",
"R. c #566857",
"E. c #4F6F4B",
"W. c #64685B",
"Q. c #7B6751",
"!. c #776B44",
"~. c #576763",
"^. c #5A786F",
"/. c #687768",
"(. c #657875",
"). c #71756B",
"_. c #555D60",
"`. c #8D5C2D",
"'. c #AA5A38",
"]. c #8A7235",
"[. c #A56634",
"{. c #D2753E",
"}. c #A95941",
"|. c #97674D",
" X c #9C7453",
".X c #AF7247",
"XX c #857571",
"oX c #AD7D68",
"OX c #D97C48",
"+X c #3C8201",
"@X c #3C830B",
"#X c #3C8609",
"$X c #3E8316",
"%X c #3D8022",
"&X c #43840B",
"*X c #448C09",
"=X c #49940C",
"-X c #438214",
";X c #438A15",
":X c #43841B",
">X c #48891A",
",X c #4A9517",
"<X c #529617",
"1X c #448122",
"2X c #4D832C",
"3X c #4C8B2B",
"4X c #488626",
"5X c #53882C",
"6X c #4B9229",
"7X c #4A8636",
"8X c #528837",
"9X c #599539",
"0X c #4E952D",
"qX c #619B39",
"wX c #599547",
"eX c #54884C",
"rX c #668F57",
"tX c #778A7B",
"yX c #6F8F74",
"uX c #5F816E",
"iX c #D99234",
"pX c #838378",
"aX c #918F74",
"sX c #B78974",
"dX c #D18D48",
"fX c #E6994A",
"gX c #FCB34B",
"hX c #F6A36B",
"jX c #D68F6A",
"kX c #767A82",
"lX c #827D84",
"zX c #799087",
"xX c #818C88",
"cX c #86978B",
"vX c #869995",
"bX c #969C94",
"nX c #95A799",
"mX c #85A29E",
"MX c #A099A2",
"NX c #9BA9A5",
"BX c #9DB4AA",
"VX c #A6B4A9",
"CX c #AAB1B5",
"ZX c #A69895",
"AX c #C2989B",
"SX c #AFC5B9",
"DX c #AECC99",
"FX c #ADB4C8",
"GX c #B5C8C6",
"HX c #BCD0E0",
"JX c #C8D3CD",
"KX c #CFE4DE",
/* pixels */
"v +., A f g ] x %.v { a.f.c d v ' <.a.} ^ ^ ^ ~ {  .{ X.f.-X| | v E ' ~ R | +X^ @X;X..$X>X&X$X:.X.1X} T x a.[ =.B.8Xw.e.2XA.D.0X",
"R I f 9.h k z x ^ _ x #. .] E ] ^ @Xc E E [ E E E ^ ] R )  .^ R ^ X.^ t.E @X&X4X| ,X..} =X-X*.x &Xf.-XB %.` ` R 5X@.J 4X4Xu.E.6X",
"z m Q <.H 7.E ~ B #.g m R ^ { ] v m i R b g W z c v { c b v ( #.c W ^ N.X.f { ..^ &X>.m ;X,X6XW ~ } &X@XO.:. .M.3X*.r.N.1X4Xr.wX",
"v ~ ( z x $.} / ~ W z f c E _ ~ c :.c &Xz W x -.v v | z +.| #.:.! u [ f.>.R v { :.{ :.~ f.;X,XR } :.6X;X] t.a.+.0X2X3X: w.t.<.7X",
"g U d f J ~ M R ^ E Q V x ~ ^ ..c ;.^ &Xz m b -XR c ( z X.{ ) ..} f -...R c R X.M.E ] [ ;.] &X$.t.v +.@.J ` -X_ *.1X3X$.2.9X&.A.",
"2 P ; g g.m H c ^ E m ` / ..] T ] v { [ T g m ^ :.v ( c ..{ [ +X*X] ^ #X] m +X` ] R ^ ..{ E #.f.E b 2.U x n $.,.&.H u.9.e.M.b.2X",
"f v x - ) h v x n x v ] /  .E f R R c ] ^ ~ u v -Xc d u x ] [ v } E x [ W ;X} E { E { =X+XW J N W W #.v 7X~ @.g.2X=.3.f.0X4Xb.V ",
"d x g > x d c c m 2 m f W { R f f u ; _ R R z c >XE v u 2 E &Xv / ,.:.v R R $X[ ^ x ^ ..] #.e.c v 0X` B Q R x V.:X2Xq.;.1Xf.D.2.",
"v m ~ c f c f ^ -.~ ~ ` b v { m ( * - z E v f R { E R c ^ m 4X~ K c ..' @X&X*X>X$X^ { | R v :.d.=./ t._ | ) v 5X8.=.8Xw.9X8X9X9X",
"x m v R v v c W P / x ~ m d ] R v x d x R ^ f T =Xd.W R f i.! R ^ | ] R ] >X*X..~ _ ^ ^ ~ x W ;X` B B f _ _ E $.9.b.g.t.V.wX<X7X",
"x z f l ; x u g ; z R x x v R ] E j ` l x R R z c f R ] M ,.v :.{ ^ ^ ] +X*X@X} ~ #._ :.^ v x } R m W x n g Q O.x ) s.7Xg.5Xq.8X",
"E ^ d x d x d g g v T x x v ..;.n +.b m ^ c ] ^ z j n T X.b *.` f ..] { c d.;X*X;X#X&X>X^ v V a.} { ^ [ +.#./ #.[ t.U 2XZ.1X7.E.",
"l x x v x B d x N v B m B R ^ R x h x v ^ ^ R { W m _ z R R o.u d U f ..x e.%.} $X} -X&X/ W v ` >X} ..>X;Xf.) #.8XM.$.2XK 4.K E.",
"d x x b g - g f 3 x d #.:Xv c f z d x ~ E c v f c f - v f ( ^ ..l $.~ c u A *.@Xv R #.v _ -.v B o.~ _ ,.+XR f m d.[ N.3.3.y.9.I ",
"v x x p d - 2 f d - - J ;.~ f ~ f v l ~ W ~ i i l j H N @ $.z f x B ^ v +.h g.#XR R _ c R -./ #.g.d._ g.<X-X( [ ..-.C.f +.Z.8X7X",
"W R z m c b g f d d = ^ ] x ^ ^ ; b # v v f ` d c ; S D V ^ <.n c ^ ^ W m P -X<XX.z R ,...:.o.m / 0Xb +.<X&X~ ] M.#.~ 9.m A.7Xf.",
"c f l _ d < n v f > d l R R c ^ d M.d f x c f x c c 2 : S - _ x , u X.E #.d R &Xf.2 ^ m S l v S ( ;Xe.[ @.=.$.+.9Xm.$.+.S +.>.7.",
"2 j d c ^ P j ; k @ b f c x l 2 f J x d p d ( v ; * & u D l R l V f ~ v <.c ^ { n S P +.*.* x % C.7XL _ k +.%.L 4X2X=.o.%.n.D.b.",
"d z @ u v f 2 2 l 2 k & , R v ^ - * ; R | $ l v u & ; - n > B n I f l x _ c  .~ R n +.H ( I c : k ) m ,.-.~ C C f.n.9._ 9.n.A.A.",
"f R v u c 2 g @ v f < % @ h 2 v f x f f R x f ' [ #.m u %.v E R -.n v v ] } | c W ` +.@.x 0X#.f ; >.$X$.;.%.0.H D.U m.g.b.=.q.2X",
"c l m = d x ( x l b 3 > A H @ : v v u W ] c ~ R v ^ ( j ` 7.R x k h j ~ ;...{ T B C.j _ l 4Xd.k > b ` :X3XC.4XU 5X2XN.s.N.f.U S.",
"R x * f d f d 2 % * 2 d h c u . g f h d x f c z ! f m u H - +.n ( Z b R v ~ f $.g I l ^ c [ [ ( >./ f *.C.1Xg.+.>.3X&.V v.m.0.Z.",
"T c - d m u z 2 ; : A f f - * 3 f ~ i d B u x d ~ l n b x x b u @.H , v c z x %.f z d v v c ~ -X .6Xb v ~ :X8.Y ) m.I ( &.n.y.y.",
"~ ; f d f ; f ~ & ; c ~ c c d ~ v ^ z x d.m ^ ] ~ f #.c #.( G 1.k.k.r n.k k j ( b x m ~ +.J 2 0._ M.[ :X9.$.m.u.=.V.m._ >XU D b.",
"Z R x u - $ 2 f ; d j 2 - - v c u i T g z B +.v m u ^ b Z.c.r L.I.I.j.k.J.l.3.n v ( ` c V =.; s.x < R >.f. .A.V.P k +.C 8Xs.v.&.",
"& d v z : * * 2 - d - p = u f b x c f k z d l j K C 1.c.c.l.Q.U.Q./.J.K.j.I.K.1.l v e.>.B P d n I P ~ ( ( ` _ +.C.s.Y 6 V =. .m.",
"Z 2 u f * . @ ; ; u ; = - z d , z R i *.W x , f ; l.l.x.z.tXU.5.o o w q J./.).W.y.3 n ( ~ @.n h ( +.m m g +.~ n ( -.7.S U s.V.A.",
"p k 2 2 @ . h c z z j d d ; u c v d ^ [ R ^ b = G z.c.!.pXH.k.9 1 0 q 5.w q R.~.tX1.f z x ~ m 2 x ;.) ,.n A 9.B.*.g.f.s.C.8X4.3.",
"d g - ; f 2 x f T c $ u z d f z c x d v m : A G T.`.|.xXI.K.Y.5 j.I.5.U.K.0 1 W.(.R.s.9.n d L b l J J =.) J >.V.U b.4.7.V.5X5X4X",
"g h - > f l , j ; d l = ; d ; ; : ; , : . Z S c.[.x.aXq L.c.U.+ T.L.q U.K.J.q 9 xXvX(.C.m f g d > > >.&.k A n g.K 3.y.D 4.C.b.7X",
"l g , @ $ x d g ; - m 2 z b - * * @ , - < - S |.'.oXr j.c.z.e 5 L.0 j.1.5.G.0 o W.xXyXm.*.#.^ L x f =.&.S A A 3.Y Y k S U 0.@.%.",
"p R f 3 % d d f @ x k m f v f : d p ^ v f m >.'.`.`.+ + 4 w 4 L.r k.XXG.j.G.j.P.q tXzXE.=.c @X+X] #.%.q.K d D A %.V L ) Z.g.v.5X",
"@ * d R b ; h m & 3 n x f -.; f W * ) v T v F.fX{.y e .X|.y r xXr G.W.K.5.~.BXG.O nXbXE.R c E } ..f 9.2.9.n Z < H Y d I m.@.7.2X",
"u > @ f x @ : u & d x > - +.~ ~ -.; a , R c l.[..Xy 9 o ].t + R.G.5.5 I.P.vXR.^.X ZX(.yXm 2 Q :.c f ; f U Y S L l Y k S &.b.E.wX",
"> - u % v , * j X 3 ; % * d ) m b ; = @ u c ].gXfXY.l.`.5 r |.J.9 w O nX~.zXpXR.o NXBXyXv d ^ E >X} R l S K k 6 *.d.B S y.6.2XwX",
"K x c * ( ~ E g 3 f v 2 +.| ^ ] u B u h @ x F.fXdX`.U.}.{.5 |.W.j.+ vX(.q ^.yX~.4 nXnXR.+XM j A #.^ b ( d >.&.g ` ` N.0.e.4.4.9.",
": ; T d u f E f , 6 f h R v _ ^ j j R u d v g.[.gXdXj.|.[.e oXO ).CXq 8 xX(.~.I.w JXvXS.$X~ Z h L >.z g.W n <.Z n Y 5XI N.E.0.q.",
"* ; u @ - * J f x $ X > u 2 m h h @ x u @ M @.fXgXhXr Y.'.t |.lXzX8 kX_.cXK.W.5.(.CXVX5X! ~ 7.a d =.g g h n m d J V $.I d.C.7XE.",
". * m * > = - ; P * - f & @ * f 2 * M u . & h F..X[.|.5.j.|.AX^.zX~.G.H.GX_.G.q KXzXuX&.! v ) v j x $.6 A V C C V I b / 3Xy.B.>.",
"> ; , J * # z u ; v @ f ; % : - d ~ T d ` b v I dXhXjXY.o XXH.(.zXzXzXP.9 ~.8 NXJXSXN.x I B ' ^  .x 4XJ J S Z S 8.A B ( 1XN.9.V.",
"& f v J 2 v f f g ; * x f x d & b x v j : R v ] n. XoXoXY.w G.(.(.kX(.K.o q CXGXVXrXI m D n +Xf ~ u x ] f 7.: 0.8.o.l ~ Y rXe.v.",
"& d c j 2 b k j K Z n v x f ^ u c f f d   f g E S Z.sXAX).XX_.5.5.q q _.VXJXJXGXzXl n ( v v x v d k f =.#.S ; g q._ C C m 3Xe.2.",
": h u u > d g f * * d * ; - l = _ f ; - 2 , > @X, b y.XXsXMXbXMXFXCXKXGXKXFXcXyX) f v ` S 2 3.H d ~ R m u d - 6.b v +.#.6 &.v.Z.",
"d b f d * ; d x ; ; d - u u ; f l *.z c d E ; _ v / u o.S.xXmXMXJXNXHXCXSXDX0X{ T R ;.( D U @.V P 0.d ` 3 d 2 S N.;X>X0X3 P 2.8.",
"u n W B d u c R z u c ; u d * z @ f ] E x Q z u g.p.E R f C 4.E.rXL.rXqXQ ~ v :.-.^ %X) 3.y.N 4Xv n > h 6 h H 6.>.>./ :X9.q.7.y.",
"; : n h l ; v R R ; d - u 2 @ f , & d v W i , i ! P f ! W h h m d u f =XQ ~ ^ f g w.W ~ m z v  .l j g - q.> U h 9.&.g N.m.b.9.=.",
"i @ d & h ; c z E ; u , u d * f z 2 : d v v d c z ) p +.g.; u c l z , d , g X.R , c b f f W %.x ^ ; b 3 =.Y k d x K ; 8.6.1.U 5X",
"Q u E u b f v v ~ ; z R u m K c c c f c c ' v ^ R i @ b ] Q T v , B x i m g b >Xi v H ~ x d v x a.m f f ; Y J x ..Y k n.y.& 6.A.",
"u f l R f z c ^ ; v f ! c m v E v f R v - R c { +Xi a :  .*.f b 2.f d u P f f #.m x - f x z v - l l ~ %.j k n &.<.Y I m.4.D K eX",
", x 2 | f f u ^ ; b # z c @ g a n f { f , x _ g ' c d 2 | c ; # e.{ J u d d 2 #.-.:.~ ( d ~ J l 3 h &.l J j S N $.#.J I U *.t.4.",
"c i z z R R $ z v f z z z * b i @ b f c @ d c c v W - d Q c T l z c H c # c d u f v g p z B =.2 b 2 ` B m l 2 S g l F K b.=.e.I ",
"d W u c c E - u ; f v x b h , c z # l M * u u { R _ v +.-.f x $.l P j v d R K J f f m - d / / m , b f.) B V 2 d #.l % A A.k U =.",
", J u v _ R u u ; , z u m > c W f d h f c d d ~ ] v T g _ b > P f n ; ; d f Y $.[ R E b f m f 2.- 2 [ ,. .;.x D b &.C 6 ` 1X~ 0.",
"z b u s M R z M d p i = x : n } c z v z ; M j x +XR E ; m z , f d R | ; p : v b | L z x v R d p h h V ^ v f.x 2 N f.U S &.*.( B.",
"i s c Q R u m h h @ d n $ F @ x v u d , : > p H z f i - J j f z X x ;Xc c , f -.R K g j f *Xj c x m 2 J S I : Y C I #.k g.b.S L ",
"s u u P - ( 3 h n - x m * Q $ j : % w.d - x g  .x ^ c f z @ i E ; c { R i c f c T m j * f ^ g & - -. .( g N S N.d x +.S s.0.Y l ",
"c E ; a : g =.J c & Y x ( +X| f d ; f f x k E ^ ] ~ ,.R f g ^ i E ~ 6X] v E b x ; / Q l x E [ 2 f V W v ) S < +.m.j  .3.$.4.4.9.",
"* O.c p < d L _ m x - c | ~ -.l d v ; m x *.f W { z ^ f i v ^ | b  .R ' f b b > d h <.*.~ ~ g +.+.V - , N 2.S Y 7./ g.m.I 8.6 N.",
"* d P ; % % % Z e.$ u i W ~ J - - f x c v J ; v ^ ,.*.*.f * +.{ c c ^ Q u b b * K % v v c 7.@ n ^ ^ : p H %.2 x x d.1X .0.9.V 4.",
"& . Z j *     Z U J # u x z ^ c x $ f d d J * ; u b E #.m - x $Xd d v R , R W % k j v E R +.h f >.#.2 l D l r.f.g x B.@X#.r.( b.",
"f @ 2 x f R x E #.:.R x Q u E ] ] : W A p P l v K d J 2.Q c ; %.h - m u ; z j   2.n v ~ c R x F %.x v f &.3.B ;.x =.( ` Y o.L & ",
"c i , & : o.R z f P v { T M c ] ^ u , h j | v c Q W H f R f z ( v v R W z o.= ; P l , n L p h $ n < z c ; T - , l f N 7.I P 4.K ",
"z M u & $ 2 c v u u z f R c , R ^ R x u x v ' R R [ Q z x d j ^ z c u n R g x v { f j d ; p f v f P x v v z J h x b d %.L ) eX+.",
"E f & = f > x v - u R c c v 2 c ] { x > - ~ { } R ^ c f ~ c c v R i z c c ~ ( d.m x W h - h c ^ x = v x d b x x M.A H N c g 9XR "
};
