/* XPM */
static char *_1777658d4354cddcd26f0773c640500f2eLWXTNHo5K4Xzl[] = {
/* columns rows colors chars-per-pixel */
"64 64 256 2 ",
"   c #050606",
".  c #060807",
"X  c #070908",
"o  c #0A0D0A",
"O  c #080B07",
"+  c #0E110C",
"@  c #0F1B0D",
"#  c #11150C",
"$  c #151A0D",
"%  c #191D0D",
"&  c #181E05",
"*  c #0E1311",
"=  c #151B11",
"-  c #1A1E12",
";  c #111410",
":  c #2F1B17",
">  c #132506",
",  c #152A06",
"<  c #192C05",
"1  c #14230B",
"2  c #1B220D",
"3  c #162B0B",
"4  c #1B2C0C",
"5  c #1F2506",
"6  c #1B3504",
"7  c #1D3B03",
"8  c #1B340A",
"9  c #1D3C0B",
"0  c #163305",
"q  c #162113",
"w  c #1C2313",
"e  c #1D2A13",
"r  c #1D261A",
"t  c #1D3612",
"y  c #21250D",
"u  c #222A0D",
"i  c #242C06",
"p  c #213D03",
"a  c #273709",
"s  c #212613",
"d  c #232B13",
"f  c #232B1B",
"g  c #262A18",
"h  c #2A3414",
"j  c #25331B",
"k  c #2B331B",
"l  c #2D3A1B",
"z  c #263815",
"x  c #323D16",
"c  c #323C1D",
"v  c #31361D",
"b  c #323513",
"n  c #1F2E23",
"m  c #232C23",
"M  c #292F28",
"N  c #362927",
"B  c #253324",
"V  c #2A3423",
"C  c #2C3A24",
"Z  c #2C3B2C",
"A  c #28362A",
"S  c #333C25",
"D  c #333C2A",
"F  c #353627",
"G  c #293533",
"H  c #323D34",
"J  c #3A3837",
"K  c #252F30",
"L  c #432D2C",
"P  c #1E4202",
"I  c #1E4705",
"U  c #1E4E08",
"Y  c #224402",
"T  c #244B02",
"R  c #294D03",
"E  c #23440C",
"W  c #254B0C",
"Q  c #294C0C",
"!  c #284703",
"~  c #394606",
"^  c #255302",
"/  c #2A5402",
"(  c #265A01",
")  c #2B5C02",
"_  c #26520B",
"`  c #2B530B",
"'  c #2C5C0A",
"]  c #245B0B",
"[  c #305D03",
"{  c #315D0C",
"}  c #345609",
"|  c #244312",
" . c #2A4817",
".. c #354719",
"X. c #2A5413",
"o. c #2D5B12",
"O. c #2D531B",
"+. c #2D5B1B",
"@. c #265112",
"#. c #325513",
"$. c #325D14",
"%. c #335C1C",
"&. c #34551B",
"*. c #2C6202",
"=. c #2E6B02",
"-. c #2D630B",
";. c #2A6706",
":. c #326302",
">. c #336C03",
",. c #33640C",
"<. c #346C0C",
"1. c #3A6C0B",
"2. c #3B6609",
"3. c #2E7202",
"4. c #337301",
"5. c #3B7404",
"6. c #3A7B02",
"7. c #3B740D",
"8. c #377809",
"9. c #2C6115",
"0. c #346314",
"q. c #3A6B14",
"w. c #34631B",
"e. c #3B641D",
"r. c #356B1B",
"t. c #3B6C1B",
"y. c #366713",
"u. c #357213",
"i. c #3C7313",
"p. c #3C7B14",
"a. c #3C7619",
"s. c #2C4626",
"d. c #344223",
"f. c #3B4524",
"g. c #35442C",
"h. c #3A442C",
"j. c #3C4B2C",
"k. c #3B4B27",
"l. c #2D5520",
"z. c #335C23",
"x. c #385828",
"c. c #2E4337",
"v. c #334333",
"b. c #3B4534",
"n. c #3C4B32",
"m. c #3C4C3C",
"M. c #37473B",
"N. c #3C5636",
"B. c #3B6423",
"V. c #3B6C23",
"C. c #386628",
"Z. c #3E7323",
"A. c #3C7628",
"S. c #3C6534",
"D. c #3D7232",
"F. c #445416",
"G. c #426C19",
"H. c #437B1B",
"J. c #447619",
"K. c #46720F",
"L. c #414C2C",
"P. c #414B23",
"I. c #475628",
"U. c #434E33",
"Y. c #454B3C",
"T. c #435433",
"R. c #455A35",
"E. c #4A5B34",
"W. c #44533B",
"Q. c #4B5B3D",
"!. c #48583A",
"~. c #535D3C",
"^. c #525A2E",
"/. c #436D2B",
"(. c #466926",
"). c #467828",
"_. c #486638",
"`. c #566639",
"'. c #487936",
"]. c #537D36",
"[. c #546A29",
"{. c #61753B",
"}. c #3A3B44",
"|. c #473C41",
" X c #384945",
".X c #3B5347",
"XX c #3E5655",
"oX c #2D4444",
"OX c #3F674C",
"+X c #474C46",
"@X c #445544",
"#X c #4A5B43",
"$X c #43544D",
"%X c #485A49",
"&X c #454C53",
"*X c #455C5B",
"=X c #475855",
"-X c #545A57",
";X c #544E4B",
":X c #634656",
">X c #4B6546",
",X c #566748",
"<X c #5B7548",
"1X c #4D6457",
"2X c #576957",
"3X c #5A7559",
"4X c #467F54",
"5X c #63794E",
"6X c #627554",
"7X c #647859",
"8X c #656D54",
"9X c #475E66",
"0X c #4C6566",
"qX c #566A67",
"wX c #587675",
"eX c #55736B",
"rX c #677B65",
"tX c #65756E",
"yX c #6A5A71",
"uX c #3B8308",
"iX c #3D8318",
"pX c #3A8228",
"aX c #428309",
"sX c #438214",
"dX c #468618",
"fX c #509517",
"gX c #4C832C",
"hX c #488726",
"jX c #53872C",
"kX c #4C8537",
"lX c #538839",
"zX c #579539",
"xX c #4E942E",
"cX c #688E38",
"vX c #58A02F",
"bX c #568846",
"nX c #5B904E",
"mX c #6C864B",
"MX c #698258",
"NX c #71865F",
"BX c #6A9149",
"VX c #6B8368",
"CX c #698474",
"ZX c #758775",
"AX c #799778",
"SX c #798E64",
"DX c #568165",
"FX c #869677",
"GX c #828C62",
"HX c #89A270",
"JX c #577382",
"KX c #779683",
"LX c #6C8B84",
"PX c #859784",
"IX c #8AA291",
"UX c #9DB1A8",
/* pixels */
") $.7 @.T R 4./ %.*.6.5.dX( Y ) 3.u.5.uX4.>.>.:.8.7.3.uXp.dX<.<.( <.:.=.*.6.4.>.uXsX6.uXdXp.dXp.8.hX5.;./ K.8.t.).zXC.V.gX'.'.xX",
"*.$.I V.E W ^ / >.<./ y.u.4.=.4.>.uX( =.>.4.;.=.=.6.6.` 2.>.8.t.C.MX(.J.-.uXsXfX8.fXsX5.fXsXq.( aXH.sX) w.<.>.*.jXy.0.hXhXD.kXhX",
"^ ' <.u.` C.=.:.[ y.T ' *.>.8.4.*.' T ) T ` -.^ R ^ 3.*.` z.g.2 ^.i I.,X(._ 5.uX=.uX7.] iXfXiX-.*.8.aXuXw.p.8.A.gXr.D./.A.hXD.nX",
") ,.-.^ / q.6.<.>.{ ^ ^ ( >.<.*.( p.( sX^ ' ^ 7.=.*.<.&.(.u   o j.$ ~ ..R.$.1.3.sX7.a.=.dXfXdX:.6.p.xXdX4.iXK.0.xXhXxX0 C.).r.xX",
"/ $.7 ^ $.:.-.*.>.=.<.{ / :.>.8.( i.=.uX^ o./ iX*.o.[.Q._.R.+ o F W.2XD W.A x BX).*.6.3.u.3.p.<.A.*.y.y.%.>.sX<.w.hXhXq.l.zXq.kX",
"p @.7 R G.) X.^ >.>.] 1.5.7.4.*.4.) 6.6.*./ ' >.a.!.@Xf...d Y.= + b % + b.% $ 3X6X{.cX).8.=.H.H.=.^ l.%./ ` i.).t.X.D.Z.Z.A./.gX",
"T ) / 6 1.E [ / ` / ) 4.>.7.=.T ) *.( 4.=.:.Y )  .o w Z @X`.j $ o 5 o   $ % + _.cX6X<XJ.6.( $.R -.*.r.) kX:.q.K.gXt.C.a.xXhX/.{ ",
"Y / R 9 ) P ^ ( ' p ' T -.6.=.I T Y 7 >.*.*./ ( j o +   + T.E.m.% 2 F # y s o !.HX`.x E.).u.a.) ) xX7.) -.*./ ).dX).C.q.dXH.].O.",
") ' *.) ^ ^ ^ >.u.:.:.1./ ) 6.) ,.4 6 T 4.) / P.#X#.`.,Xq o g L.j.$ # y h $ $ n.d.FXNXFX6X( H.p.q.K.Z.<.1.<.) gXC.).kXC.zXlXzXzX",
"R ) [ :.*.) / *.X.>./ :.' Y 3.*.) ) 7 / =.=.Q ~ b ..j.,X`.f + $ w # # $ 2 o o I.u mXHXNXL.Q ( dX<.*.) T 1.=.<.1.B.(.J.A.hXnXfXkX",
"( _ T Y 7 ^ 7 T p ^ *./ / ) *.<.*.E >._ ) / j.i k h f.rXZXT.X # = g $ + #   + a F.`.SXrXy ,X[ 7.:.) *./ ` / <.w._ 1.t.gXJ.jX/.lX",
"=.>.Y / Y / T T R ( *.^ / ) 6.p.' 0.U ` *.B.2X..s l -XZXtX1X  + $ d # o o   # z # # F - y ,X$.uX8.4.>.7.,.,.<.y.5.A.$.jXD.hX+.<X",
"! / / ) R ) ! _ } ) [ ) [ *.>.*./ o.T 2.8.<X6XQ.k g.wXrXm.Z g o d #.0.| C n.A M.k 1 = f h 2 [.<.hX5.7.fXsXp.>.0.jX).1.gX .z.O.>X",
"Y / / ` / 6 R R p / Y 0.dX' ^ T T Y ^ [ | ~.l % # V #X,XM $ # + a '.N.g.g.z B XXm.N.j.C $ O L.} <.:.<.i.uX:.T $.sX5./.z.z.S.V.9.",
") ^ ^ E p 6 Y T P 7 7 o.i.:.T >.T ( / [ _.# y u & % L.5X$ # # R /.*X-X+X Xj q *XH Z >X-X$ o + e.J.H.;.i.fXsX*.8.p.u.).T u._.bXkX",
"=.*.T ) ( / W T p Y 0 =.4./ >.>.Y T 3 [ SXR.~.$ $ % h.2Xy $ j B.+XyX:X+Xc.e m n  X.X>XyX-X2 g.$ (.xX' w.fXsX*.5.).u.:.V.' '.'.sX",
"( R Y <.Y t _ ) T 8 ! T *.*.( >.Y ).T , 2Xk o y I.MXVXNXu d %X+X|.:X9X.X1Xb.XXo H =X.X:X:X Xs X W.bXw.q.7.r.{ t.zX).i.r. .0.a.z.",
"P | Y ) >.@.W p Q 1 _ ^ ^ ^ Y 7 ^ ` ^ @ X $ # h 2XSXCXQ.D j H L |.N @X1X*X.XXX= G $X1X&X&XJ F + h.3XC.:.| o.A.X.hXhXt.9.w.V.]./.",
"Y ^ > P *.! Y 7 Y p Q 3 7 *.) >.0 1 Y 4 o o j b.5X5X{.,Xs k g.L +X+X>X>X Xm.0Xe q m.9X=X+X|.+Xs # 7X(.hXV.) ' #.H.G.B.<.B./.].).",
"T *.) P ^ Y R > *.Y 9 3 > E 7 :.R / Y z $ 4 R.E.6XtX7XE.w C M.F v.+X$XD A f 1Xj m v.oXoX9X X&X#X$ Y.T.y.p.2.'.Q ].%./.K.V.t.V.kX",
"^ Y ' 0 P / <.R ! ` 9 8 @.o., 8 ^ *.O.C F !.qX3X6X% I.L.o U.L L $X.X=XM B B.kX^ q A r G 9X9X&XJ v k.P.j.gXjX).y.lXhX).G.).H.+.].",
"=./ 8 ! Y T Y Y > 4 P Y I ^ P $ ( R z # d.#X,X3XrXs b +Xo D : H 1Xv.r  .] gXB.u.P r + oXJXJX|.N l mXIXb lXJ.Z.y.p.jXe.{ (./.C._.",
"*.( 7 P ' 7 ^ p 7 8 @.T Y 6 8 9 I ! + + $ F U.T.I.f.S k $ l }.c.=XH $ Q ( <X` z.Y m O @ oX0X0X XS 3XUXrXFXgX<.z.,.).$.' t.B.S.S.",
":.7 T Y T 7 T :.3 7 / *.) ^ p :.*.E X   O o % h.,X2Xh.g 2 k A XXXXk | 4.] LXQ 0.) N.* o m =X0X.Xn.d.HXtXFX,X].C.q.'.).q.dXw. ./.",
"I ) ] Y 0 , Y T 7 7 _ E < 0 *.( R z A g.w   o o $ %Xb.o 3 0X$ M.oXr ,.).eX.Xz.` ( e .X+ # B 9Xd.d.NXL.CXV 1X_.'.X.Q e.} xXG.G.B.",
"e P ( ^ 8 4 4 7 7 p 7 7 0 Y / %.@XT.M.,X2X1XA o   + # + % 0X*X.X}.0XOXJX1XXXc..Xx.OX X=XG .X=X0XwXM + 3XY.2Xv.e.J.e.$.t o.t.a.G.",
"| p p T < @ , 7 P P T 6 7 I 7 d.g.,X@Xh.h.@XCXrXm.o   % $ *X Xs $ Q 5.O.z C.I 7 7 8 oXA + # r q 1Xc.b.g.,XA k %X0.7.V. .w.G.'.].",
"E Q p Y , $ E ( ^ T I 7 P 7 Y g D 3XU.g.2 u Q.7X5XH o q c.# A A q ) ' 3.s.| T ;.C.p A ; o + q $ =Xe I.V V W.F H _.7.gXy.J.lX%.z.",
"Y ! 0 7 T p T T ) ) 8 T T !  .k f.<X7XP.i % n.,X#Xj.b.w m.2 = oXq ^ 9.;.OXY 6.-.] I O @   + + 0XV o $ k.>X6Xs Z #XG.x.%.).zXhXjX",
"R E 8 9 T Y 7 _ P 7 Y 0 Y p # % m.=X2 +XU.u m.!.-X#Xd.h k.r K # m.>.) _ S._ -.Y C.O.+ $ o    X%Xs + O S b.% M S S z.S.l.l.J./.lX",
"T R 7 , < / Y R 0 7 =.9 W 4 ; $ Z k o V >X@Xb.1XqXh f.e j A .XG = C.' , N.E @.I I U * o o o wXB f + O $ + o w 2 d X.Q O.%.B.q.w.",
"P ) T 9 1 Y Y T , #.! ^ / % D # O !.$ V v u s g [.v C j.S G .XG 8 C A.@.4X+./ u.a.*.o @ o eXr H V - o o   o g r z ' O.<.S.G.(.jX",
"1 , Y *.R 7 E o., I ' / R o d.# X k L.f.$ + # c P.R.D Q.g.G $Xg.@ P m.>XS./ pX>.vXi.# f wXG r  X Xk o o o . s h.k O.7 0.).$.V.'.",
"P 9 , T ^ > 0 Y e E ! 8 > * = + o n.,XY.d u f.T.j.W.s S F h.@XT.n 3 | =X| I T ^ ] y.q A 9Xo =  X&X X+ o o o G # d 0.R O.%.(.bXlX",
"9 6 Y 1 ' 7 0 W 1 7 a > 3 1 $ + o +   o 2 y L.%XD f % h.k h %Xm. X7 |  Xl.7 T =.I  .e JXXXX q c.*X:X+ + $ %XV D  .G.2.O.S.S.).nX",
"O./ ( 3 -.:.=.T 8 / ) p <.z l % o o o o O g 3X2Xv $ b s $ i b.oXn ( ' *Xs.q._ ( _ ^ B eXr o G $X-X-X2 o # s y b.; 1.).+./.z.x.t.",
"6 7 *.I P T =.T 0 @.T E *.# r # # o     r 2 ..`.I.$ $ % y y Z @Xm | _ 0X'  .C.( *.r.c.o r o H 0X9X;XX o ; ; ; o w O.C.,.].S.S.D.",
"4 6 P , 6 4 $.T ( 3 1 0 I o o o $ o o # d.+ u [.f.% = u u L.j.%Xg.3 ] '.( ,.B C.<.bX+   K w k.tX;XN ; o o   . o k #.J.y.J.'.].].",
"$ 4 ] 0 I , 6 7 ) 6 4 7 l + . o $ ;   # b.$ # L.h u # ..F.`.U.-X@Xw  .z.*.^ a 4XCXa.# o B # =X0XJ L   o   * $ @Xj l ) ,.hXD.G./.",
"7 7 6 +.3 < T P 7 ) , T h.3Xf   # + o o + d i !.h % u L.c 5X,Xh.M.Z N.V.^ ] ,.}.*XW q X = =XqX+XL ; * o o ; k F d >X(.:.hX_.C.hX",
"3 ^ ) o.Y ( T R R 6 8 ^ L.k.rX. o + X X + + g # v a ^.,Xc ~.8XL.k G m D./ *.1XM..Xm.@ o + 1X0XH N k s w + + s % h 3XAX).) BXA./.",
"3 P ^ W p _ Q W X.E O.Y b.l 2X2X  X o + X + d = o 2X2X#Xh.U.# $ F V H | / pXt.` r C m n % =X*XG S s = L.b.g $ # $ I.ZXrXe.].r.l.",
"8 E P P 8 Y R T , 3 ! , v.f 3X7X% o   + - + h + # k.# O % ..o y g H m.=  .DXH. .b.q K H A M.m l w   E.~.`.LXf.$ # v 6XZXz ).)./.",
"P _ T Y 8 7 Y / P 8 T S.N.g g._.2X+   + Z ..v % $ a o   $ v  XT.h q =X- eXb.z m = + * G f G 1 d z # %XPXPXrX`.$ o $ 2 s u | z.z.",
"P _ ,.) Y P ^ *.I T #.VXQ.Q...#XMX2X*   r 1XY.$ + x F d.E.c H +Xg o *X0X X# q = Z e j - m A n h o o %XPXIXGX5Xk o $ ....'.A.z./.",
"7 8 ` | ! P *.*.^ R >XFXVX3XW.>X2XqX-Xo + Z <Xy 2 % + $ R.-X,XAXr .XqX9XB A c.b.M.*XZ G ;  XN.y o X V MXAX8X7X..% # # v b./.(.e.",
"I , T , E 7 ^ ^ 4._.CXVXNX_.@XW.T.S ..%Xo X g.K $ $ + + #XFXPXKXb.M.0X% n M.1X$X$X*X$XD * B C C o $ U.2X2Xx L.s % + - # z N.C.hX",
"-.P =.P _ T ( *.x.r w y E.k.$ @X!.2X@XT.3Xo o l w # o # h.2 + o D q v.q r B 0X&XoX+X=Xm q q % # +   # + o + o $ d $ % ; h n.x.'.",
"P / Y >.I ( ^ ' 2 h o   c u ..U.S s f h I.h.X s %Xw o = # o o o w U.q w g J J M F |.J V 4 l # # # O o + = f $ $ 2 2 d.$Xm.>Xl.bX",
"I P T ,.I T R ` # i 2 % d.y + $ F U.5 # % qXg o T.L.2 # + o O + y %X% d N N L : N L J D j.U.2 2 # + o f k #XF o $ d.%Xs s m.N.B.",
"( ^ I ) ) ) < $ ..mX>X= # c s c >XKXtXd.s I.5Xo o `.b # # o o o $ m. .j M D N - : J &Xf n.w % o $ o   X # y $ o $ W.-Xs u D @X#.",
"I 9.P ) =.=.< h Z R.`.# o + o $ X & 2XL.$ 2 5XKX  q P.i % + + o y k.z j = C b.f - Z $ # B # = M s   o * o # # + 2 g ..+Xg.h z (.",
"0 o.P ^ ;.*.R E.g o $ $ . o o + # o j #X..2 2 mX%X  i F.& & # % s P.k + + >X#X= o V w % # - g D b.r $ + . o - # H &XU.I.F.).[ (.",
"^ T T ( =._ x.j.s X . # # o $ + % s % x F.} ~ `.6XT.; #X+Xk ..n.j.j.C # m 2XV s + o   # $ f - qXeX3XF - #   = + y L.,X,XrXkX_ ).",
"( P ( ( 2.z._.x % o   f o o O - o + a ~ a a P.rXZXFXb $ _.h.g h k T.L.l.R.T.g % + o X q o = f wXZXrXE.^.2 2 & # S b.U.S `.(. .+.",
"I 7 ^ @._.6X5XD u o g T.$ # s # # # & % i ~ >X^.a cXMXV ~ {.& y $ x L.I. .h 1 2 4 2 - r - o M.VXZX2XL.% $ - u  .4 p #. . ._.X.` ",
"( [ &._.I.`.I.j.$ b.,Xb.# @ $ g + $ # u 5 ..a a F.5XAXrX$ I.^.P.$ y I.#XI.*.^ / 7 :.>.W ^ W #.I...Q Q ) %.| 8 w.G.` 5.z.q.x.z.V.",
"6 /.AXtXMX3X,XU.$ o l # # # $ o # $ $ V R.3X$ I.`.[.F.[.i o L %Xg v AXrXeX' W W 7 ` iXw.:.=.Y w.y.{ 6 7 :.%.@.&.B.<.J.).$.B.| /.",
"3 N.!.W.g.C C g s # % # + k = # + # g y h.k T.x [.F.G.^.x.O $ d.u f.NXFXrX&.R 3 +.> ) T / A.> o.>.<.8 p ` w.Y Q / H.dXq.S.V.,.N.",
", $ 4 3 e 3 1 e w q + + = s 2 - 5 # % $ ..s ..a F.F.,XI.h.+ # y v k.,X7XAXa.-.1 | W *.:.:.r.7 T i.,.p Q l.p A.a.T ) A.uXy.A.,.V.",
"T 8 7 ] ( ) *.*.u.r.*.W Q $ % $ 1 2 2 o 4 n.N...F.F.F.b y O # d y u l C #Xt.a 1 l.` ) >.( ( R X.z.) / T q.%./ a.) r.>.1.#.9.o.e ",
"( 7 7 8 , 9.( ) ^ W *.3.( ;.( =.E < 1 + + # Y.E.^.U.U.D z 7 8 { [ *.^ $.*.r.0 9 o.Y 0 ' +.| W 0 ) z T ^ p ) 7 7 ! Y } C.$.X.z.O.",
";.^ 7 > 8 Y *.( T 7 ( ( I ( P ( ;.5.^ 9 / a 4 @Xm.L...! T T _ ;.^ ^ I ^ ) T I *.<.^ _ Y 7 Y ( / T W ( =.*.^ 9.8 / _ p %.+.y.lXw.",
"*._ 3 < T 7 T ( 7 Y ) ( *.-.7 / 6.>./ p 3 =.5.p.' 1.^ ] *.( ( *.) T ^ / ] >.) dX=.^ / W 8 9 *.*.^ 6 ) T p ^ ( ) ). .o.[ ^ / zX*."
};
